<svg xmlns="http://www.w3.org/2000/svg" xmlns:xlink="http://www.w3.org/1999/xlink" viewBox="0,0,256,256" width="50px" height="50px"><g fill="#232629" fill-rule="nonzero" stroke="none" stroke-width="1" stroke-linecap="butt" stroke-linejoin="miter" stroke-miterlimit="10" stroke-dasharray="" stroke-dashoffset="0" font-family="none" font-weight="none" font-size="none" text-anchor="none" style="mix-blend-mode: normal"><g transform="scale(5.12,5.12)"><path d="M25,2c-12.69141,0 -23,10.30859 -23,23c0,12.69141 10.30859,23 23,23c12.69141,0 23,-10.30859 23,-23c0,-12.69141 -10.30859,-23 -23,-23zM15.6875,9.3125c1.39844,0 2.91797,0.38281 4.71875,1.28125c1.80078,0.89844 3.10547,1.80469 3.90625,2.90625c1.30078,0.30078 2.38672,0.80078 3.1875,1.5c1,0.89844 1.79297,2.29297 2.59375,4.09375c0.69922,1.80078 1.09375,3.50781 1.09375,4.90625c0,0.39844 -0.08594,0.80469 -0.1875,1.40625c0.30078,-0.10156 1,-0.29297 2,-0.59375c1,-0.30078 1.88672,-0.61328 2.6875,-0.8125c0.80078,-0.19922 1.40625,-0.3125 1.90625,-0.3125c0.5,0 1,0.11719 1.5,0.21875c0.5,0.10156 0.8125,0.38281 0.8125,0.78125c0,0.60156 -1.41406,1.39844 -4.3125,2.5c-2.89844,1.10156 -4.69531,1.625 -5.59375,1.625c-0.19922,0 -0.59375,-0.02344 -1.09375,-0.125c-0.5,-0.10156 -0.91797,-0.09375 -1.21875,-0.09375h-1.09375c-0.10156,0 -0.1875,0.09375 -0.1875,0.09375c0,0.10156 -0.09375,0.21094 -0.09375,0.3125c0,0.69922 0.47656,1.28906 1.375,1.6875c0.89844,0.39844 1.82422,0.625 2.625,0.625c0.80078,0 1.88281,-0.11328 3.28125,-0.3125c1.39844,-0.19922 2.61328,-0.3125 3.3125,-0.3125c0.5,0 0.78125,0.22656 0.78125,0.625c0,0.60156 -0.88281,1.1875 -2.78125,1.6875c-1.80078,0.5 -3.19531,0.8125 -4.09375,0.8125c-1.69922,0 -3.82422,-0.69922 -6.625,-2c-0.10156,0.39844 -0.09375,0.88281 -0.09375,1.28125c0,1.60156 0.41797,3.39844 1.21875,5.5h0.1875c0.39844,-0.10156 0.6875,0.10156 0.6875,0.5c2.10156,-1.60156 3.61328,-2.40625 4.3125,-2.40625c0.5,0 0.8125,1.42578 0.8125,4.125c0,1.5 -0.21875,2.1875 -0.71875,2.1875c-0.69922,0 -1.88281,-0.38672 -3.78125,-1.1875c0.30078,0.60156 0.80078,1.39844 1.5,2.5c0.34375,0.49219 0.64063,0.89063 0.875,1.25c-1.35156,0.27344 -2.75781,0.4375 -4.1875,0.4375c-2.58984,0 -5.05469,-0.48828 -7.34375,-1.34375c-0.27344,-1.27734 -0.61328,-2.98828 -1.15625,-5.46875c-1.60156,-7 -2.6875,-12.27344 -3.1875,-15.875c-0.10156,-0.69922 -0.21875,-1.41797 -0.21875,-2.21875c0,-2.30078 0.61328,-4.10547 1.8125,-5.40625c1.19922,-1.30078 2.98047,-2.07422 5.28125,-2.375c-0.69922,-0.19922 -1.48828,-0.3125 -2.6875,-0.3125c-0.80078,0 -2.08594,0.11328 -3.6875,0.3125c0,-0.19922 0.08203,-0.39844 0.28125,-0.5l0.59375,-0.3125c0.19922,0 0.51172,-0.09375 0.8125,-0.09375c0.30078,0 0.49219,-0.09375 0.59375,-0.09375c0.60156,-0.10156 1.32031,-0.41406 2.21875,-0.8125c-1.30078,-0.39844 -2.5,-0.59375 -3.5,-0.59375c-0.19922,0 -0.5,-0.00781 -1,0.09375c-0.39844,0.10156 -0.69922,0.09375 -1,0.09375h-0.3125l1,-1.40625c0.10156,0 0.5,-0.08594 1,-0.1875c0.5,-0.10156 0.98828,-0.1875 1.1875,-0.1875zM27.8125,17.40625c-0.89844,0 -1.42578,0.39453 -1.625,1.09375c0.19922,-0.39844 0.82422,-0.59375 1.625,-0.59375c0.39844,0 0.89844,0.10547 1.5,0.40625c-0.19922,-0.5 -0.80078,-0.90625 -1.5,-0.90625zM17.3125,17.90625c-0.37109,0.04297 -0.69922,0.17969 -1,0.40625c-0.5,0.30078 -0.71875,0.6875 -0.71875,1.1875c0,0.19922 -0.00781,0.39844 0.09375,0.5c0,-0.5 0.21094,-0.88672 0.8125,-1.1875c0.60156,-0.39844 1.09375,-0.5 1.59375,-0.5c0.19922,0 0.50781,0.08594 0.90625,0.1875c-0.30078,-0.39844 -0.71094,-0.59375 -1.3125,-0.59375c-0.125,0 -0.25,-0.01562 -0.375,0zM28.59375,20.6875c-0.30078,0 -0.60547,0.10547 -0.90625,0.40625c-0.30078,0.30078 -0.375,0.60547 -0.375,0.90625c0,0.30078 0.07422,0.60547 0.375,0.90625c0.30078,0.30078 0.60547,0.40625 0.90625,0.40625c0.39844,0 0.70703,-0.10547 0.90625,-0.40625c0.30078,-0.30078 0.40625,-0.60547 0.40625,-0.90625c0,-0.39844 -0.10547,-0.70703 -0.40625,-0.90625c-0.30078,-0.30078 -0.60547,-0.40625 -0.90625,-0.40625zM29.09375,21.3125c0.19922,0 0.40625,0.08203 0.40625,0.28125c0,0.19922 -0.10547,0.40625 -0.40625,0.40625c-0.19922,0 -0.28125,-0.10547 -0.28125,-0.40625c0,-0.19922 0.08203,-0.28125 0.28125,-0.28125zM18.5,21.40625c-0.39844,0 -0.69922,0.19922 -1,0.5c-0.30078,0.30078 -0.5,0.69922 -0.5,1c0,0.39844 0.19922,0.69922 0.5,1c0.30078,0.30078 0.60156,0.5 1,0.5c0.39844,0 0.69922,-0.19922 1,-0.5c0.30078,-0.30078 0.5,-0.69922 0.5,-1c0,-0.39844 -0.19922,-0.69922 -0.5,-1c-0.30078,-0.30078 -0.69922,-0.5 -1,-0.5zM19.1875,22c0.30078,0 0.40625,0.10547 0.40625,0.40625c0,0.19922 -0.10547,0.40625 -0.40625,0.40625c-0.30078,0 -0.375,-0.10547 -0.375,-0.40625c0,-0.30078 0.07422,-0.40625 0.375,-0.40625z"></path></g></g></svg>