<?xml version="1.0" encoding="UTF-8" standalone="no"?>
<svg
   version="1.1"
   width="512"
   height="512"
   id="svg12"
   sodipodi:docname="google-dark.svg"
   inkscape:version="1.3.2 (091e20ef0f, 2023-11-25)"
   xmlns:inkscape="http://www.inkscape.org/namespaces/inkscape"
   xmlns:sodipodi="http://sodipodi.sourceforge.net/DTD/sodipodi-0.dtd"
   xmlns="http://www.w3.org/2000/svg"
   xmlns:svg="http://www.w3.org/2000/svg">
  <defs
     id="defs12" />
  <sodipodi:namedview
     id="namedview12"
     pagecolor="#ffffff"
     bordercolor="#000000"
     borderopacity="0.25"
     inkscape:showpageshadow="2"
     inkscape:pageopacity="0.0"
     inkscape:pagecheckerboard="0"
     inkscape:deskcolor="#d1d1d1"
     inkscape:zoom="1.6074219"
     inkscape:cx="199.69866"
     inkscape:cy="252.88943"
     inkscape:window-width="2560"
     inkscape:window-height="1020"
     inkscape:window-x="0"
     inkscape:window-y="0"
     inkscape:window-maximized="1"
     inkscape:current-layer="svg12" />
  <path
     d="M0 0 C0.99 0.495 0.99 0.495 2 1 C2.4230957 3.22705078 2.4230957 3.22705078 2.67578125 6.1953125 C2.77866455 7.29222412 2.88154785 8.38913574 2.98754883 9.51928711 C3.14839966 11.30411499 3.14839966 11.30411499 3.3125 13.125 C9.30870366 72.37814513 35.68802329 128.23209459 77 171 C77.898396 171.93126709 77.898396 171.93126709 78.81494141 172.88134766 C86.48410494 180.78800787 94.24196324 188.29021377 103 195 C104.1772315 195.92949987 105.3543047 196.85920027 106.53125 197.7890625 C116.80903431 205.80531497 127.65490772 212.60053231 139 219 C139.84723633 219.47856445 140.69447266 219.95712891 141.56738281 220.45019531 C176.81086972 240.1312746 215.13975874 249.44243575 255 254 C255 254.66 255 255.32 255 256 C254.17612793 256.09498779 253.35225586 256.18997559 252.50341797 256.2878418 C235.42420566 258.28884811 218.64416975 260.53811073 202 265 C201.15969238 265.22413574 200.31938477 265.44827148 199.45361328 265.67919922 C186.58770195 269.17910253 174.24277648 273.73491903 162 279 C161.28279785 279.30631348 160.5655957 279.61262695 159.82666016 279.92822266 C134.50405256 290.88734042 111.41589781 306.52282117 91 325 C90.03803711 325.86939209 90.03803711 325.86939209 89.05664062 326.75634766 C81.97880766 333.18589514 75.08074026 339.60338201 69 347 C68.19691406 347.91523438 67.39382813 348.83046875 66.56640625 349.7734375 C55.20219122 362.76199191 45.41463055 376.94028123 37 392 C36.31188232 393.22468994 36.31188232 393.22468994 35.60986328 394.47412109 C17.38119335 427.24726226 6.65128608 462.34290303 3.03833008 499.59643555 C2.93029053 500.66031494 2.82225098 501.72419434 2.7109375 502.8203125 C2.62118652 503.77180176 2.53143555 504.72329102 2.43896484 505.70361328 C2 508 2 508 0 510 C-1.67916122 508.32083878 -1.36792585 506.1480215 -1.578125 503.83984375 C-6.28631572 455.36980733 -21.56037098 409.85229569 -50 370 C-50.39783691 369.43780762 -50.79567383 368.87561523 -51.20556641 368.29638672 C-57.82420712 359.00389548 -65.14076329 349.67461731 -73.35546875 341.71875 C-75 340 -75 340 -75 338 C-75.66 338 -76.32 338 -77 338 C-78.2265625 336.71484375 -78.2265625 336.71484375 -79.625 334.9375 C-83.06288261 330.80709428 -86.89940775 327.4566976 -91 324 C-91.91394531 323.19820313 -92.82789063 322.39640625 -93.76953125 321.5703125 C-107.69660864 309.41528221 -122.64344393 299.12468876 -138.82470703 290.20507812 C-140.78057952 289.1215555 -142.71797653 288.01190408 -144.65234375 286.890625 C-178.20625005 268.01891167 -216.09025687 259.91530852 -254 256 C-254 255.34 -254 254.68 -254 254 C-253.0706665 253.87995605 -252.14133301 253.75991211 -251.18383789 253.63623047 C-196.20015677 246.43158911 -144.24792288 230.01223729 -101 194 C-100.45102051 193.55253418 -99.90204102 193.10506836 -99.33642578 192.64404297 C-84.93324463 180.90081429 -71.28008847 167.79682193 -60 153 C-59.21882812 152.02417969 -58.43765625 151.04835937 -57.6328125 150.04296875 C-24.70586579 108.71780806 -4.31317107 55.83136466 -1.2109375 3.01953125 C-1 1 -1 1 0 0 Z "
     fill="#4B89D4"
     transform="translate(256,1)"
     id="path1"
     style="fill:#232629;fill-opacity:1" />
  <path
     d="M 0,0 2,1 C 2.4230957,3.2270508 2.4230957,3.2270508 2.6757813,6.1953125 L 2.9875488,9.5192871 3.3125,13.125 C 5.7985832,37.691919 12.013583,61.055583 20.815918,84.086914 23,89.813185 23,89.813185 23,92 h -2 c -0.679586,2.397194 -0.679586,2.397194 -1,5 l 2,2 -2,1 v 5 h -2 c -1.149071,1.92546 -1.149071,1.92546 -1,4 l -2,1 2,2 c -0.478592,1.60434 -0.957896,3.20846 -1.4375,4.8125 l -0.808594,2.70703 C 14.196121,121.35473 13.606554,123.18034 13,125 l -3,-1 3,4 -2,2.3125 c -2.2985054,2.53028 -2.2985054,2.53028 -2,5.6875 -1.1316678,5.09251 -2.767456,7.98719 -6,12 l 1,3 -2,2 v 3 l -1,2 2,1 -2,3 h -2 l -0.4375,2.375 C -1.9413479,166.72629 -2.2895593,168.28956 -4,170 l 1,3 c -0.9375,2.1875 -0.9375,2.1875 -2,4 h -2 l 1,3 -3,2 2,3 c -0.9977758,2.99333 -1.7522025,3.94766 -4,6 l 2,1 c -0.75,2.9375 -0.75,2.9375 -2,6 -2.125,0.875 -2.125,0.875 -4,1 l 4,1 -1.4375,1.6875 C -14.129434,204.19156 -14.446042,206.07193 -15,209 l -2,1 1,2 -1.5,1.8125 c -1.782764,2.1578 -1.782764,2.1578 -1.5,5.1875 0.306243,1.33981 0.634516,2.67512 1,4 l -4,1 1,2 c -0.8125,1.8125 -0.8125,1.8125 -2,4 -1.310683,2.44289 -1.310683,2.44289 -2,5 0.76604,2.28577 0.76604,2.28577 2,4 h -2 v 2 l -2.0625,1.875 L -29,245 c 0.293698,1.34262 0.627896,2.67696 1,4 -1.4375,2.125 -1.4375,2.125 -3,4 v 2 l 2,1 -1.9375,1.375 c -2.159524,1.46422 -2.159524,1.46422 -3.0625,3.625 h -2 l 1,2 2,-1 1,3 -2,1.875 c -2.228455,1.88137 -2.228455,1.88137 -2,4.125 v 2 h -2 l 0.6875,2.75 C -37,279 -37,279 -38.3125,281.125 L -40,283 c -1.268046,2.03359 -1.268046,2.03359 -2,4 l 1,2 -1,2 h -2 l -1,3 1,1 -2,1 v 2 l 2,1 -2,1 v 3 l -3,-1 1,3 c -0.942809,2.35702 -1.946472,4.69034 -3,7 -0.373086,1.32276 -0.730464,2.65232 -1,4 h 2 v 2 l -2,2 -0.4375,2.5 C -53,325 -53,325 -56,327 l 1,2 h -3 l 2,4 -3,1 c 0.655852,3.60992 0.655852,3.60992 2,7 l -2,2 c -1.945834,2.95767 -3.352886,5.50558 -4,9 -1.141928,-1.14193 -2.283224,-2.28449 -3.421875,-3.42969 -1.146137,-1.14046 -2.303993,-2.26918 -3.46875,-3.39062 l -1.921875,-1.86719 -1.832031,-1.76172 C -75,340 -74.26991,340.78551 -75.826748,339.12209 L -77,338 c -1.226562,-1.28516 -1.226562,-1.28516 -2.625,-3.0625 C -83.062883,330.80709 -86.899408,327.4567 -91,324 l -2.769531,-2.42969 c -13.927079,-12.15503 -28.873909,-22.44562 -45.055179,-31.36523 -1.95587,-1.08352 -3.89327,-2.19318 -5.82763,-3.31446 C -178.20625,268.01891 -216.09026,259.91531 -254,256 v -2 l 2.81616,-0.36377 C -196.20016,246.43159 -144.24792,230.01224 -101,194 l 1.663574,-1.35596 C -84.933245,180.90081 -71.280088,167.79682 -60,153 l 2.367188,-2.95703 C -24.705866,108.71781 -4.3131711,55.831365 -1.2109375,3.0195313 -1,1 -1,1 0,0 Z"
     fill="#617ECE"
     transform="translate(256,1)"
     id="path2"
     style="fill:#232629;fill-opacity:1"
     sodipodi:nodetypes="cccccccccccccccccccccccccccccccccccccccccccccccccccccccccccccccccccccccccccccccccccccccccccccccccccccccccccccccccccccccccccc" />
  <path
     d="M0 0 C2.70996423 0 4.44773738 0.51677021 6.5 2.3125 C7.65498021 3.51190253 8.80412569 4.71693569 9.94921875 5.92578125 C13.97332219 9.99587445 18.5059223 13.46855589 23 17 C23.57363281 17.45536133 24.14726562 17.91072266 24.73828125 18.37988281 C35.57844817 26.93943646 46.97570308 34.21741087 59 41 C60.27085449 41.71784668 60.27085449 41.71784668 61.56738281 42.45019531 C96.81086972 62.1312746 135.13975874 71.44243575 175 76 C175 76.66 175 77.32 175 78 C173.76419189 78.14248169 173.76419189 78.14248169 172.50341797 78.2878418 C155.42420566 80.28884811 138.64416975 82.53811073 122 87 C120.73953857 87.33620361 120.73953857 87.33620361 119.45361328 87.67919922 C106.58770195 91.17910253 94.24277648 95.73491903 82 101 C81.28279785 101.30631348 80.5655957 101.61262695 79.82666016 101.92822266 C54.50405256 112.88734042 31.41589781 128.52282117 11 147 C10.35869141 147.57959473 9.71738281 148.15918945 9.05664062 148.75634766 C1.97880766 155.18589514 -4.91925974 161.60338201 -11 169 C-11.80308594 169.91523438 -12.60617187 170.83046875 -13.43359375 171.7734375 C-24.79780878 184.76199191 -34.58536945 198.94028123 -43 214 C-43.68811768 215.22468994 -43.68811768 215.22468994 -44.39013672 216.47412109 C-62.61880665 249.24726226 -73.34871392 284.34290303 -76.96166992 321.59643555 C-77.06970947 322.66031494 -77.17774902 323.72419434 -77.2890625 324.8203125 C-77.42368896 326.24754639 -77.42368896 326.24754639 -77.56103516 327.70361328 C-78 330 -78 330 -80 332 C-81.67916122 330.32083878 -81.36792585 328.1480215 -81.578125 325.83984375 C-83.47246574 306.36935288 -86.32073503 287.26003449 -92.3984375 268.609375 C-93.02635579 265.88567749 -93.00990918 264.57272954 -92 262 C-90.4375 259.75 -90.4375 259.75 -89 258 C-88.34 258.33 -87.68 258.66 -87 259 C-87 258.34 -87 257.68 -87 257 C-87.66 256.67 -88.32 256.34 -89 256 C-88.41437029 249.99729545 -86.30369964 245.30369964 -82 241 C-80.894183 237.98413546 -81.02312549 236.03916514 -82 233 C-81.01 232.67 -80.02 232.34 -79 232 C-78.67 228.37 -78.34 224.74 -78 221 C-77.01 221.33 -76.02 221.66 -75 222 C-75 220.68 -75 219.36 -75 218 C-76.98 218.99 -76.98 218.99 -79 220 C-78.33333333 218.66666667 -77.66666667 217.33333333 -77 216 C-76.67 215.29875 -76.34 214.5975 -76 213.875 C-75 212 -75 212 -73 210 C-73.3185177 207.89179203 -73.3185177 207.89179203 -74 206 C-73.34 205.67 -72.68 205.34 -72 205 C-71.34444881 202.47266765 -71.34444881 202.47266765 -71 200 C-70.01 200 -69.02 200 -68 200 C-68.66 199.01 -69.32 198.02 -70 197 C-68.68 197 -67.36 197 -66 197 C-66.99 196.01 -67.98 195.02 -69 194 C-66.03 193.01 -66.03 193.01 -63 192 C-63.66 191.01 -64.32 190.02 -65 189 C-65.99 189.33 -66.98 189.66 -68 190 C-68.495 188.02 -68.495 188.02 -69 186 C-68.01 185.67 -67.02 185.34 -66 185 C-65.26676204 182.98491642 -65.26676204 182.98491642 -65 181 C-64.34 181 -63.68 181 -63 181 C-63 181.66 -63 182.32 -63 183 C-62.01 183 -61.02 183 -60 183 C-62.475 178.545 -62.475 178.545 -65 174 C-64.01 173.67 -63.02 173.34 -62 173 C-61.34 173.33 -60.68 173.66 -60 174 C-60 173.34 -60 172.68 -60 172 C-60.66 171.67 -61.32 171.34 -62 171 C-61.34 170.236875 -60.68 169.47375 -60 168.6875 C-57.70149462 166.15722061 -57.70149462 166.15722061 -58 163 C-56.68 162.67 -55.36 162.34 -54 162 C-54 161.34 -54 160.68 -54 160 C-54.99 159.67 -55.98 159.34 -57 159 C-54.525 158.01 -54.525 158.01 -52 157 C-52.33 156.01 -52.66 155.02 -53 154 C-53 150 -53 150 -52 148 C-50.68 148 -49.36 148 -48 148 C-49.98 145.525 -49.98 145.525 -52 143 C-50.92598892 140.08482708 -50.22189824 138.22189824 -48 136 C-48 135.34 -48 134.68 -48 134 C-48.66 133.67 -49.32 133.34 -50 133 C-49.01 132.67 -48.02 132.34 -47 132 C-47 131.34 -47 130.68 -47 130 C-46.34 129.67 -45.68 129.34 -45 129 C-45.7763932 125.9254644 -45.7763932 125.9254644 -48 124 C-45.69 122.68 -43.38 121.36 -41 120 C-41.33 119.01 -41.66 118.02 -42 117 C-41.34 117 -40.68 117 -40 117 C-40.3403125 115.8553125 -40.3403125 115.8553125 -40.6875 114.6875 C-40.8421875 113.3571875 -40.8421875 113.3571875 -41 112 C-39.625 110.375 -39.625 110.375 -38 109 C-37.505 107.515 -37.505 107.515 -37 106 C-37 106.66 -37 107.32 -37 108 C-36.34 107.34 -35.68 106.68 -35 106 C-35.99 105.01 -35.99 105.01 -37 104 C-36.34 104 -35.68 104 -35 104 C-34.505 102.02 -34.505 102.02 -34 100 C-35.32 99.67 -36.64 99.34 -38 99 C-37.875 97.25 -37.875 97.25 -37 95 C-33.9375 92.75 -33.9375 92.75 -31 91 C-31.20625 89.88625 -31.4125 88.7725 -31.625 87.625 C-31.810625 85.830625 -31.810625 85.830625 -32 84 C-31.34 83.34 -30.68 82.68 -30 82 C-29.60235737 80.01178687 -29.26224651 78.01055661 -29 76 C-29.99 75.505 -29.99 75.505 -31 75 C-30.01 75 -29.02 75 -28 75 C-27.77390663 72.87635519 -27.77390663 72.87635519 -29.5 71.375 C-29.995 70.92125 -30.49 70.4675 -31 70 C-30.01 70 -29.02 70 -28 70 C-25.42359482 68.79231007 -24.25440745 67.55948079 -23.078125 64.97265625 C-21.63464098 60.88051522 -20.73488754 57.37435563 -21 53 C-20.505 52.01 -20.505 52.01 -20 51 C-20.33 50.01 -20.66 49.02 -21 48 C-20.01 47.01 -19.02 46.02 -18 45 C-19.485 44.505 -19.485 44.505 -21 44 C-19.25 39.125 -19.25 39.125 -17 38 C-16.34786708 35.97536745 -16.34786708 35.97536745 -16 34 C-15.34 34 -14.68 34 -14 34 C-14 33.01 -14 32.02 -14 31 C-13.34 31 -12.68 31 -12 31 C-12 29.02 -12 27.04 -12 25 C-10.515 25.495 -10.515 25.495 -9 26 C-8.34 21.05 -7.68 16.1 -7 11 C-7.99 10.505 -7.99 10.505 -9 10 C-7.68 10 -6.36 10 -5 10 C-5 8.35 -5 6.7 -5 5 C-4.34 5 -3.68 5 -3 5 C-2.5359375 4.0409375 -2.5359375 4.0409375 -2.0625 3.0625 C-1 1 -1 1 0 0 Z "
     fill="#3593DA"
     transform="translate(336,179)"
     id="path3"
     style="fill:#232629;fill-opacity:1" />
  <path
     d="M0 0 C2 1.3125 2 1.3125 4 3 C4 3.99 4 4.98 4 6 C3.34 6 2.68 6 2 6 C2 6.66 2 7.32 2 8 C0.68 8.33 -0.64 8.66 -2 9 C-1.01 10.32 -0.02 11.64 1 13 C0.34 13 -0.32 13 -1 13 C-1.84098656 17.01804691 -2.05404945 20.01803543 -1 24 C-2.32 24.66 -3.64 25.32 -5 26 C-4.67 26.99 -4.34 27.98 -4 29 C-4.33 29.33 -4.66 29.66 -5 30 C-4.01 30.99 -4.01 30.99 -3 32 C-3.78375 32.886875 -4.5675 33.77375 -5.375 34.6875 C-7.97431343 37.80225802 -10 40.81344787 -10 45 C-9.34 45.33 -8.68 45.66 -8 46 C-8.515625 46.598125 -9.03125 47.19625 -9.5625 47.8125 C-10.036875 48.534375 -10.51125 49.25625 -11 50 C-10.67 50.99 -10.34 51.98 -10 53 C-10.33 53.66 -10.66 54.32 -11 55 C-11.99 55 -12.98 55 -14 55 C-14 55.66 -14 56.32 -14 57 C-13.34 57 -12.68 57 -12 57 C-12 57.66 -12 58.32 -12 59 C-12.99 59.495 -12.99 59.495 -14 60 C-15.24714403 62.40952023 -15.24714403 62.40952023 -16 65 C-15.67 65.66 -15.34 66.32 -15 67 C-15.66 67 -16.32 67 -17 67 C-16.67 68.65 -16.34 70.3 -16 72 C-17.1446875 72.680625 -17.1446875 72.680625 -18.3125 73.375 C-20.23632814 74.53824492 -22.12941224 75.7529415 -24 77 C-22.68 78.65 -21.36 80.3 -20 82 C-20.33 82.66 -20.66 83.32 -21 84 C-21.99 84.33 -22.98 84.66 -24 85 C-23.79375 85.5775 -23.5875 86.155 -23.375 86.75 C-22.91338739 89.51967567 -23.57055055 90.64561267 -25 93 C-25.66 93 -26.32 93 -27 93 C-27.33 93.66 -27.66 94.32 -28 95 C-27.67 95.33 -27.34 95.66 -27 96 C-26.93779604 101.90937619 -27.9524174 106.5148409 -32 111 C-35.25 112.375 -35.25 112.375 -38 113 C-37.835 113.78375 -37.67 114.5675 -37.5 115.375 C-37 118 -37 118 -37 120 C-36.835 120.825 -36.67 121.65 -36.5 122.5 C-35.72684604 126.3657698 -35.62906332 130.26108178 -37 134 C-37.99 134.33 -38.98 134.66 -40 135 C-40.66179847 136.98045559 -40.66179847 136.98045559 -41 139 C-41.33 139.33 -41.66 139.66 -42 140 C-43.47100093 143.30975208 -44.36152123 146.44276112 -45 150 C-45.185625 150.70125 -45.37125 151.4025 -45.5625 152.125 C-46.11361481 154.1660264 -46.11361481 154.1660264 -46 157 C-46.66 157.33 -47.32 157.66 -48 158 C-48 159.093125 -48 160.18625 -48 161.3125 C-48 163.54166667 -48 165.77083333 -48 168 C-49.52097602 169.52097602 -51.06739023 171.01656213 -52.625 172.5 C-55.22958315 174.66695339 -55.22958315 174.66695339 -55 177 C-55.66 177.66 -56.32 178.32 -57 179 C-56.443125 180.299375 -56.443125 180.299375 -55.875 181.625 C-54.84444991 185.59997894 -55.32343017 187.31154638 -57 191 C-59 193 -59 193 -61 194 C-61.15811388 197.05270463 -61.15811388 197.05270463 -60 200 C-63 202 -63 202 -65 203 C-64.814375 204.27875 -64.62875 205.5575 -64.4375 206.875 C-63.875 210.75 -63.875 210.75 -65 213 C-65.66 213 -66.32 213 -67 213 C-67.33 214.32 -67.66 215.64 -68 217 C-71.38608644 216.3887811 -73.38039575 215.16953902 -76.0625 213.04296875 C-76.84906982 212.4308252 -77.63563965 211.81868164 -78.44604492 211.18798828 C-79.71025269 210.19774658 -79.71025269 210.19774658 -81 209.1875 C-90.89473768 201.608975 -101.15572939 195.12030323 -112 189 C-113.051875 188.39381836 -113.051875 188.39381836 -114.125 187.77539062 C-148.78157085 167.88118601 -187.62067264 159.0670868 -227 155 C-227 154.34 -227 153.68 -227 153 C-226.0706665 152.87995605 -225.14133301 152.75991211 -224.18383789 152.63623047 C-169.20015677 145.43158911 -117.24792288 129.01223729 -74 93 C-73.45102051 92.55253418 -72.90204102 92.10506836 -72.33642578 91.64404297 C-57.93324463 79.90081429 -44.28008847 66.79682193 -33 52 C-32.21882812 51.02417969 -31.43765625 50.04835937 -30.6328125 49.04296875 C-18.50957222 33.82585089 -9.08920896 17.1562709 0 0 Z "
     fill="#6F77C9"
     transform="translate(229,102)"
     id="path4"
     style="fill:#232629;fill-opacity:1" />
  <path
     d="M0 0 C0.66 0.66 1.32 1.32 2 2 C2.33 1.67 2.66 1.34 3 1 C9.76595837 1.21825672 14.6862821 4.2623733 20.5 7.5 C53.96248815 25.48036392 90.50052773 33.71236278 128 38 C128 38.66 128 39.32 128 40 C127.17612793 40.09498779 126.35225586 40.18997559 125.50341797 40.2878418 C108.42420566 42.28884811 91.64416975 44.53811073 75 49 C74.15969238 49.22413574 73.31938477 49.44827148 72.45361328 49.67919922 C59.58770195 53.17910253 47.24277648 57.73491903 35 63 C34.28279785 63.30631348 33.5655957 63.61262695 32.82666016 63.92822266 C15.36644918 71.48465252 -1.08386756 81.31655266 -16.19116211 92.86206055 C-20.02212167 95.75719932 -23.26039585 97.79288207 -28 99 C-28.66 98.34 -29.32 97.68 -30 97 C-28.515 96.01 -28.515 96.01 -27 95 C-27 94.34 -27 93.68 -27 93 C-28.32 92.67 -29.64 92.34 -31 92 C-31 91.34 -31 90.68 -31 90 C-30.34 90 -29.68 90 -29 90 C-25.97518297 84.28016553 -25.97518297 84.28016553 -25 78 C-23 76.3125 -23 76.3125 -21 75 C-21.83333333 72.83333333 -21.83333333 72.83333333 -24 72 C-23.38125 71.113125 -22.7625 70.22625 -22.125 69.3125 C-19.65011315 65.45458814 -18 62.6103278 -18 58 C-16.68 57.34 -15.36 56.68 -14 56 C-14 55.34 -14 54.68 -14 54 C-13.35747635 51.9921136 -12.69258229 49.99117408 -12 48 C-10.68 48.33 -9.36 48.66 -8 49 C-8 48.34 -8 47.68 -8 47 C-8.66 47 -9.32 47 -10 47 C-10.33 46.01 -10.66 45.02 -11 44 C-11.66 44.66 -12.32 45.32 -13 46 C-12.67 44.35 -12.34 42.7 -12 41 C-11.01 41 -10.02 41 -9 41 C-9 39.68 -9 38.36 -9 37 C-9.99 37 -10.98 37 -12 37 C-10.87548273 34.0280615 -9.77706209 31.66559313 -8 29 C-8.33 28.01 -8.66 27.02 -9 26 C-8.34 26 -7.68 26 -7 26 C-7 25.34 -7 24.68 -7 24 C-6.01 23.67 -5.02 23.34 -4 23 C-4 22.01 -4 21.02 -4 20 C-4 19.34 -4 18.68 -4 18 C-3.34 18 -2.68 18 -2 18 C-2 17.01 -2 16.02 -2 15 C-2.66 14.67 -3.32 14.34 -4 14 C-3.360625 13.38125 -2.72125 12.7625 -2.0625 12.125 C0.03883584 10.17402388 0.03883584 10.17402388 1 8 C0.06421005 5.64018187 -0.93347808 3.30368736 -2 1 C-1.34 0.67 -0.68 0.34 0 0 Z M-27 91 C-27 91.66 -27 92.32 -27 93 C-25.68 93.33 -24.36 93.66 -23 94 C-22.67 93.34 -22.34 92.68 -22 92 C-21.01 91.34 -20.02 90.68 -19 90 C-22.62326739 88.7922442 -23.64146369 89.45688872 -27 91 Z "
     fill="#229DE1"
     transform="translate(383,217)"
     id="path5"
     style="fill:#232629;fill-opacity:1" />
  <path
     d="M0 0 C1.26923077 7.33333333 1.26923077 7.33333333 0 11 C0 11.33 0 11.66 0 12 C-0.7734375 13.60875 -0.7734375 13.60875 -1.5625 15.25 C-3.00701373 18.52378113 -3.15889063 20.52332811 -2 24 C-2.66 24 -3.32 24 -4 24 C-3.505 25.485 -3.505 25.485 -3 27 C-3.66 27 -4.32 27 -5 27 C-5.33 27.66 -5.66 28.32 -6 29 C-6.33 29 -6.66 29 -7 29 C-8.1490712 30.9254644 -8.1490712 30.9254644 -8 33 C-8.97063483 35.34570085 -9.96898053 37.68020619 -11 40 C-11.66 40 -12.32 40 -13 40 C-12.505 42.97 -12.505 42.97 -12 46 C-13.32 46.33 -14.64 46.66 -16 47 C-14.35 47.66 -12.7 48.32 -11 49 C-11.495 49.99 -11.495 49.99 -12 51 C-13.485 51.495 -13.485 51.495 -15 52 C-15 52.66 -15 53.32 -15 54 C-15.99 54 -16.98 54 -18 54 C-17.34 54.66 -16.68 55.32 -16 56 C-15.47411893 59.33058011 -15.71593406 60.60020349 -17.6875 63.375 C-20 65 -20 65 -22.13671875 64.8203125 C-25.96766545 63.72276979 -29.48872088 62.11736578 -33.125 60.5 C-62.93656829 47.66691365 -92.9979771 41.71325509 -125 38 C-125 37.34 -125 36.68 -125 36 C-124.0706665 35.87995605 -123.14133301 35.75991211 -122.18383789 35.63623047 C-83.13258486 30.51925272 -46.35148651 21.86744453 -11.66601562 2.47460938 C-4.50938309 -1.5031277 -4.50938309 -1.5031277 0 0 Z M-20 56 C-20.33 56.99 -20.66 57.98 -21 59 C-20.01 59 -19.02 59 -18 59 C-18.33 58.01 -18.66 57.02 -19 56 C-19.33 56 -19.66 56 -20 56 Z "
     fill="#886BC2"
     transform="translate(127,219)"
     id="path6"
     style="fill:#232629;fill-opacity:1" />
  <path
     d="M0 0 C0.66 0 1.32 0 2 0 C2.495 3.96 2.495 3.96 3 8 C2.34 8 1.68 8 1 8 C0.731875 8.928125 0.46375 9.85625 0.1875 10.8125 C-0.95857567 13.88880839 -1.73482342 14.83330936 -4 17 C-4.86480264 19.51578949 -5 21.30646447 -5 24 C-5 24.33 -5 24.66 -5 25 C-4.505 25.99 -4.505 25.99 -4 27 C-4.99 27.99 -5.98 28.98 -7 30 C-6.01 29.34 -5.02 28.68 -4 28 C-3.34 28.66 -2.68 29.32 -2 30 C-3.32 31.32 -4.64 32.64 -6 34 C-5.67 34.66 -5.34 35.32 -5 36 C-5.66 36 -6.32 36 -7 36 C-7.268125 36.845625 -7.53625 37.69125 -7.8125 38.5625 C-11.11111111 48.11111111 -11.11111111 48.11111111 -14 51 C-13.7525 51.928125 -13.7525 51.928125 -13.5 52.875 C-13 55 -13 55 -13.75 57.1875 C-15 59 -15 59 -18 60 C-19.38576923 61.62332967 -20.72641268 63.28724465 -22 65 C-21.505 65.61875 -21.01 66.2375 -20.5 66.875 C-19 69 -19 69 -19 71 C-19.66 71 -20.32 71 -21 71 C-21.433125 72.175625 -21.433125 72.175625 -21.875 73.375 C-23 76 -23 76 -25 78 C-24.67751743 79.33599921 -24.34227417 80.66893378 -24 82 C-24.1875 84.625 -24.1875 84.625 -25 87 C-27.0625 88.3125 -27.0625 88.3125 -29 89 C-28.01 89.99 -27.02 90.98 -26 92 C-26.66 92 -27.32 92 -28 92 C-28 93.32 -28 94.64 -28 96 C-32.86872054 95.40440894 -36.59328841 93.27522585 -40.8125 90.9375 C-41.50537109 90.56044922 -42.19824219 90.18339844 -42.91210938 89.79492188 C-44.61128985 88.86916148 -46.30609425 87.93537688 -48 87 C-47.505 86.01 -47.505 86.01 -47 85 C-46.34 85 -45.68 85 -45 85 C-44.34 82.69 -43.68 80.38 -43 78 C-43.66 77.67 -44.32 77.34 -45 77 C-45.66 76.01 -46.32 75.02 -47 74 C-44 74 -44 74 -42 75 C-42.33 74.01 -42.66 73.02 -43 72 C-40.525 71.01 -40.525 71.01 -38 70 C-39.98 69.67 -41.96 69.34 -44 69 C-43.01 68.01 -43.01 68.01 -42 67 C-41.34 67 -40.68 67 -40 67 C-40.33 64.03 -40.66 61.06 -41 58 C-40.01 58.66 -39.02 59.32 -38 60 C-36.48046291 55.08417923 -36.48046291 55.08417923 -36 50 C-36 49.34 -36 48.68 -36 48 C-34.68 48 -33.36 48 -32 48 C-30.48046291 43.08417923 -30.48046291 43.08417923 -30 38 C-29.33333333 36.66666667 -28.66666667 35.33333333 -28 34 C-28 33.01 -28 32.02 -28 31 C-27.814375 30.401875 -27.62875 29.80375 -27.4375 29.1875 C-26.8460951 26.2304755 -27.28876093 23.90961439 -28 21 C-28.66 20.67 -29.32 20.34 -30 20 C-30.33 20.66 -30.66 21.32 -31 22 C-31 21.01 -31 20.02 -31 19 C-28.75251682 17.46224835 -26.56101563 16.12786355 -24.1875 14.8125 C-18.20027393 11.39031568 -12.76182299 7.74426042 -7.3671875 3.43359375 C-4.66084921 1.7946067 -3.1080512 1.69583129 0 2 C0 1.34 0 0.68 0 0 Z M-47 77 C-46.34 77.33 -45.68 77.66 -45 78 C-45 78.66 -45 79.32 -45 80 C-45.99 79.67 -46.98 79.34 -48 79 C-47.67 78.34 -47.34 77.68 -47 77 Z "
     fill="#7C71C6"
     transform="translate(154,198)"
     id="path7"
     style="fill:#232629;fill-opacity:1" />
  <path
     d="M0 0 C0.66 0.33 1.32 0.66 2 1 C2.33 7.27 2.66 13.54 3 20 C2.34 19.01 1.68 18.02 1 17 C0.34 17 -0.32 17 -1 17 C-1.33 17.99 -1.66 18.98 -2 20 C-1.86177801 16.85378318 -1.71314916 13.70814434 -1.5625 10.5625 C-1.52318359 9.66466797 -1.48386719 8.76683594 -1.44335938 7.84179688 C-1.40146484 6.98779297 -1.35957031 6.13378906 -1.31640625 5.25390625 C-1.27974854 4.46314697 -1.24309082 3.6723877 -1.20532227 2.85766602 C-1 1 -1 1 0 0 Z "
     fill="#6C79CB"
     transform="translate(256,1)"
     id="path8"
     style="fill:#232629;fill-opacity:1" />
  <path
     d="M0 0 C0.99 0.33 1.98 0.66 3 1 C3 5 3 5 2 8 C2 8.66 2 9.32 2 10 C1.34 10 0.68 10 0 10 C0.185625 10.94875 0.37125 11.8975 0.5625 12.875 C1 16 1 16 0 18 C-0.99 17.67 -1.98 17.34 -3 17 C-2.68985608 14.91631462 -2.3767948 12.83306332 -2.0625 10.75 C-1.88847656 9.58984375 -1.71445313 8.4296875 -1.53515625 7.234375 C-1.1272264 4.76893039 -0.66098697 2.40575438 0 0 Z "
     fill="#6B79CB"
     transform="translate(252,30)"
     id="path9"
     style="fill:#232629;fill-opacity:1" />
  <path
     d="M0 0 C1.98 0.66 3.96 1.32 6 2 C5.67 2.99 5.34 3.98 5 5 C2.03 4.505 2.03 4.505 -1 4 C-0.67 2.68 -0.34 1.36 0 0 Z "
     fill="#3F8FD8"
     transform="translate(245,445)"
     id="path10"
     style="fill:#232629;fill-opacity:1" />
  <path
     d="M0 0 C0.66 0.99 1.32 1.98 2 3 C1.1875 4.9375 1.1875 4.9375 0 7 C-0.99 7.33 -1.98 7.66 -3 8 C-3.1875 5.125 -3.1875 5.125 -3 2 C-2.01 1.34 -1.02 0.68 0 0 Z "
     fill="#6E78CA"
     transform="translate(256,21)"
     id="path11"
     style="fill:#232629;fill-opacity:1" />
  <path
     d="M0 0 C0.66 0.33 1.32 0.66 2 1 C0.68 2.32 -0.64 3.64 -2 5 C-2.66 4.67 -3.32 4.34 -4 4 C-4.33 4.66 -4.66 5.32 -5 6 C-5 5.01 -5 4.02 -5 3 C-2.625 1.25 -2.625 1.25 0 0 Z "
     fill="#7774C7"
     transform="translate(128,214)"
     id="path12"
     style="fill:#232629;fill-opacity:1" />
</svg>
