<svg xmlns="http://www.w3.org/2000/svg" xmlns:xlink="http://www.w3.org/1999/xlink" viewBox="0,0,256,256" width="50px" height="50px"><g fill="#ffffff" fill-rule="nonzero" stroke="none" stroke-width="1" stroke-linecap="butt" stroke-linejoin="miter" stroke-miterlimit="10" stroke-dasharray="" stroke-dashoffset="0" font-family="none" font-weight="none" font-size="none" text-anchor="none" style="mix-blend-mode: normal"><g transform="scale(5.12,5.12)"><path d="M25.99609,48c-12.68359,0 -23.00391,-10.31641 -23.00391,-23c0,-12.68359 10.32031,-23 23.00391,-23c5.74609,0 11.24609,2.12891 15.49219,5.99609l0.77344,0.70703l-7.58594,7.58594l-0.70312,-0.60156c-2.22656,-1.90625 -5.05859,-2.95703 -7.97656,-2.95703c-6.76562,0 -12.27344,5.50391 -12.27344,12.26953c0,6.76563 5.50781,12.26953 12.27344,12.26953c4.87891,0 8.73438,-2.49219 10.55078,-6.73828h-11.55078v-10.35547l22.55078,0.03125l0.16797,0.79297c1.17578,5.58203 0.23438,13.79297 -4.53125,19.66797c-3.94531,4.86328 -9.72656,7.33203 -17.1875,7.33203z"></path></g></g></svg>