<svg xmlns="http://www.w3.org/2000/svg" xmlns:xlink="http://www.w3.org/1999/xlink" viewBox="0,0,256,256" width="50px" height="50px"><g fill="#ffffff" fill-rule="nonzero" stroke="none" stroke-width="1" stroke-linecap="butt" stroke-linejoin="miter" stroke-miterlimit="10" stroke-dasharray="" stroke-dashoffset="0" font-family="none" font-weight="none" font-size="none" text-anchor="none" style="mix-blend-mode: normal"><g transform="scale(5.12,5.12)"><path d="M25,4c-11.046,0 -20,8.954 -20,20c0,2.206 0.37125,4.32264 1.03125,6.30664c0.103,0.022 0.20545,0.04422 0.31445,0.07422c0.002,-0.161 0.01416,-0.32891 0.03516,-0.50391c0.173,-1.448 1.2893,-2.5 2.6543,-2.5c0.365,0 0.72908,0.07466 1.08008,0.22266c0.648,0.273 1.58055,0.73575 2.18555,1.59375c0.11,0.156 0.21913,0.31175 0.32813,0.46875c0.717,-1.166 1.79439,-1.3752 2.27539,-1.4082c0.068,-0.005 0.13417,-0.00781 0.20117,-0.00781c1.12,0 2.11611,0.65119 2.66211,1.74219c0.197,0.394 0.3785,0.79431 0.5625,1.19531c0.208,0.454 0.40323,0.88306 0.61523,1.28906c0.581,1.111 1.32122,2.10975 2.19922,2.96875c0.049,0.048 0.09558,0.09649 0.14258,0.14648c0.656,0.713 2.65195,2.88236 1.50195,5.94336c-0.335,0.892 -0.76333,1.58639 -1.23633,2.15039c1.122,0.196 2.26927,0.31836 3.44727,0.31836c1.114,0 2.19967,-0.11406 3.26367,-0.28906c-0.483,-0.569 -0.92267,-1.27169 -1.26367,-2.17969c-1.149,-3.061 0.84595,-5.23036 1.50195,-5.94336c0.046,-0.05 0.09358,-0.09949 0.14258,-0.14648c0.878,-0.86 1.61822,-1.85775 2.19922,-2.96875c0.212,-0.406 0.40919,-0.83506 0.61719,-1.28906c0.183,-0.401 0.3655,-0.80131 0.5625,-1.19531c0.546,-1.091 1.54211,-1.74219 2.66211,-1.74219c0.066,0 0.13317,0.00281 0.20117,0.00781c0.481,0.033 1.55939,0.24125 2.27539,1.40625c0.109,-0.157 0.21813,-0.31275 0.32813,-0.46875c0.605,-0.859 1.53755,-1.3198 2.18555,-1.5918c0.351,-0.148 0.71508,-0.22266 1.08008,-0.22266c1.365,0 2.4813,1.05005 2.6543,2.49805c0.021,0.175 0.03316,0.34291 0.03516,0.50391c0.192,-0.052 0.37102,-0.08814 0.54102,-0.11914c0.65,-1.97 1.01367,-4.07077 1.01367,-6.25977c0,-11.046 -8.954,-20 -20,-20zM18.29688,15.2793c0.27781,-0.01562 0.55964,0.015 0.83789,0.09375c1.156,0.327 1.92973,1.35144 1.92773,2.64844c-0.002,0.036 -0.00148,0.16978 -0.02148,0.30078c-0.157,1.012 -0.40252,1.15597 -1.35352,0.79297c-0.795,-0.303 -0.98981,-0.24316 -1.50781,0.46484c-0.651,0.889 -0.98966,0.90145 -1.72266,0.06445c-0.758,-0.865 -0.86767,-2.15642 -0.26367,-3.10742c0.48075,-0.75675 1.27008,-1.21094 2.10352,-1.25781zM31.50391,15.28711c0.38173,-0.01881 0.76831,0.04464 1.13281,0.19727c1.001,0.418 1.61033,1.33344 1.61133,2.89844c-0.006,0.478 -0.42699,1.20519 -1.20898,1.74219c-0.34,0.233 -0.61637,0.18328 -0.85937,-0.13672c-0.02,-0.026 -0.03955,-0.05308 -0.06055,-0.08008c-0.816,-1.06 -0.81842,-1.06953 -2.10742,-0.64453c-0.438,0.144 -0.68175,0.0168 -0.84375,-0.4082c-0.359,-0.947 -0.12562,-2.08355 0.60938,-2.81055c0.47,-0.465 1.09035,-0.72645 1.72656,-0.75781zM12.5,20c0.828,0 1.5,0.672 1.5,1.5c0,0.828 -0.672,1.5 -1.5,1.5c-0.828,0 -1.5,-0.672 -1.5,-1.5c0,-0.828 0.672,-1.5 1.5,-1.5zM37.5,20c0.828,0 1.5,0.672 1.5,1.5c0,0.828 -0.672,1.5 -1.5,1.5c-0.828,0 -1.5,-0.672 -1.5,-1.5c0,-0.828 0.672,-1.5 1.5,-1.5zM18.72656,23.89648c0.13286,0.00717 0.29041,0.04784 0.47266,0.12109c0.738,0.297 1.45697,0.64295 2.16797,1.00195c2.58,1.304 5.12053,1.15889 7.64453,-0.16211c0.573,-0.3 1.15781,-0.58127 1.75781,-0.82227c0.797,-0.32 1.10912,-0.10772 1.07813,0.73828c-0.133,3.611 -2.64217,6.86266 -6.82617,6.84766c-4.18,0.018 -6.69366,-3.20477 -6.84766,-6.88477c-0.024,-0.585 0.15416,-0.86136 0.55273,-0.83984zM9.0332,29.37695c-0.357,0 -0.61597,0.29633 -0.66797,0.73633c-0.064,0.531 0.01228,1.04098 0.36328,1.45898c0.576,0.687 1.17244,1.35939 1.77344,2.02539c0.657,0.728 2.37305,2.4628 2.37305,2.7168c0,0.32 -0.25812,0.58008 -0.57812,0.58008c-0.273,0 -1.13573,-0.89328 -1.42773,-1.11328c-1.366,-1.026 -2.71133,-2.07764 -4.11133,-3.05664c-0.416,-0.291 -0.96947,-0.45439 -1.48047,-0.52539c-0.039,-0.005 -0.07823,-0.00781 -0.11523,-0.00781c-0.599,0 -0.96344,0.67842 -0.64844,1.23242c0.144,0.253 0.35584,0.49206 0.58984,0.66406c0.562,0.413 1.14733,0.79206 1.73633,1.16406c0.541,0.341 2.34577,1.49636 3.38477,2.19336c0.103,0.069 0.1972,0.13436 0.2832,0.19336c0.006,0.004 0.01353,0.00772 0.01953,0.01172c0.075,0.052 0.14122,0.09667 0.19922,0.13867c0.011,0.008 0.0232,0.01839 0.0332,0.02539c0.05,0.036 0.09005,0.06384 0.12305,0.08984c0.009,0.007 0.01934,0.01548 0.02734,0.02148c0.035,0.028 0.06041,0.04859 0.06641,0.05859c0.011,0.006 0.02344,0.01563 0.02344,0.01563c0,0 -0.00581,0.00777 -0.00781,0.00977c0.043,0.081 0.07422,0.16958 0.07422,0.26758c0,0.017 -0.00777,0.03088 -0.00976,0.04688c-0.025,0.297 -0.26631,0.53125 -0.57031,0.53125c-0.105,0 -0.1982,-0.03498 -0.2832,-0.08398c-0.006,-0.001 -0.01158,-0.00091 -0.01758,-0.00391c-0.891,-0.48 -1.74748,-1.02919 -2.64648,-1.49219c-0.823,-0.424 -1.67116,-0.80372 -2.53516,-1.13672c-0.144,-0.056 -0.30013,-0.09375 -0.45312,-0.09375c-0.248,0 -0.48734,0.09977 -0.65234,0.38477c-0.227,0.393 -0.12664,0.88123 0.31836,1.24023c0.345,0.278 0.72977,0.53108 1.13477,0.70508c1.005,0.433 2.04183,0.79556 3.04883,1.22656c0.374,0.16 0.7373,0.39383 1.0293,0.67383c0.129,0.124 0.15341,0.48611 0.06641,0.66211c-0.066,0.133 -0.36827,0.20313 -0.57227,0.20313h-0.01562c-0.203,-0.003 -0.41252,-0.11494 -0.60352,-0.21094c-0.623,-0.313 -1.22733,-0.66903 -1.86133,-0.95703c-0.539,-0.244 -1.09883,-0.47375 -1.67383,-0.59375c-0.025,-0.005 -0.05013,-0.00977 -0.07812,-0.00977c-0.233,0 -0.54898,0.17547 -0.70898,0.35547c-0.258,0.288 -0.1078,0.66172 0.1582,0.88672c0.402,0.34 0.82397,0.68502 1.29297,0.91602c3.102,1.524 6.37666,2.3493 9.84766,2.4043c0.712,-0.053 1.42872,-0.08106 2.13672,-0.16406c0.7,-0.081 1.28816,-0.29991 1.78516,-0.62891c0.182,-0.12 0.34981,-0.2592 0.50781,-0.4082c0.035,-0.033 0.06756,-0.06952 0.10156,-0.10352c0.12,-0.122 0.23289,-0.25162 0.33789,-0.39062c0.038,-0.05 0.07533,-0.10034 0.11133,-0.15234c0.096,-0.138 0.18453,-0.28355 0.26953,-0.43555c0.031,-0.055 0.0628,-0.10706 0.0918,-0.16406c0.106,-0.208 0.20501,-0.42525 0.29102,-0.65625c0.583,-1.553 -0.07956,-2.77672 -1.10156,-3.88672c-0.02,-0.024 -0.04436,-0.04731 -0.06836,-0.07031c-1.043,-1.02 -1.89631,-2.18366 -2.57031,-3.47266c-0.429,-0.822 -0.78031,-1.68367 -1.19531,-2.51367c-0.175,-0.35 -0.45505,-0.63867 -0.87305,-0.63867c-0.021,0 -0.04245,0.00095 -0.06445,0.00195c-0.477,0.033 -0.71814,0.39192 -0.86914,0.79492c-0.409,1.094 -0.13581,2.06325 0.61719,2.90625c0.308,0.345 0.73886,0.58903 1.00586,0.95703c0.178,0.245 0.29903,0.67645 0.20703,0.93945c-0.105,0.299 -0.39203,0.40625 -0.70703,0.40625c-0.091,0 -0.18534,-0.00939 -0.27734,-0.02539c-0.468,-0.081 -0.73156,-0.39439 -0.97656,-0.77539c-1.106,-1.715 -2.20095,-3.43847 -3.37695,-5.10547c-0.291,-0.413 -0.83817,-0.6983 -1.32617,-0.9043c-0.107,-0.045 -0.20969,-0.06445 -0.30469,-0.06445zM40.75586,29.37891c-0.095,0 -0.19769,0.02141 -0.30469,0.06641c-0.122,0.051 -0.24905,0.10792 -0.37305,0.16992c-0.249,0.124 -0.49141,0.27127 -0.69141,0.44727c-0.1,0.088 -0.18972,0.18216 -0.26172,0.28516c-0.588,0.833 -1.15584,1.68116 -1.71484,2.53516c-0.559,0.854 -1.10911,1.71427 -1.66211,2.57227c-0.031,0.048 -0.06275,0.08977 -0.09375,0.13477c-0.222,0.316 -0.47381,0.56767 -0.88281,0.63867c-0.046,0.008 -0.09072,0.00772 -0.13672,0.01172c-0.046,0.004 -0.09367,0.01367 -0.13867,0.01367c-0.315,0 -0.60203,-0.10825 -0.70703,-0.40625c-0.069,-0.198 -0.01711,-0.48956 0.08789,-0.72656c0.035,-0.079 0.07414,-0.15189 0.11914,-0.21289c0.067,-0.092 0.14552,-0.17486 0.22852,-0.25586c0.166,-0.16 0.3543,-0.30499 0.5293,-0.45898c0.088,-0.077 0.172,-0.15619 0.25,-0.24219c0.094,-0.105 0.18077,-0.21327 0.25977,-0.32227c0.315,-0.437 0.50402,-0.90625 0.54102,-1.40625c0.028,-0.375 -0.03059,-0.76773 -0.18359,-1.17773c-0.075,-0.202 -0.1735,-0.39116 -0.3125,-0.53516c-0.069,-0.072 -0.14823,-0.13274 -0.24023,-0.17773c-0.092,-0.045 -0.19741,-0.07208 -0.31641,-0.08008c-0.011,-0.001 -0.02025,-0.00195 -0.03125,-0.00195c-0.011,0 -0.0232,-0.00195 -0.0332,-0.00195c-0.104,0 -0.19911,0.01878 -0.28711,0.05078c-0.263,0.097 -0.45298,0.32489 -0.58398,0.58789c-0.415,0.83 -0.76631,1.69267 -1.19531,2.51367c-0.168,0.322 -0.34806,0.63736 -0.53906,0.94336c-0.382,0.613 -0.81016,1.19133 -1.28516,1.73633c-0.237,0.273 -0.48705,0.53797 -0.74805,0.79297c-0.024,0.023 -0.04731,0.04631 -0.07031,0.07031c-1.021,1.111 -1.68456,2.33372 -1.10156,3.88672c0,0.001 0.00095,0.00486 0.00195,0.00586c0.087,0.231 0.18597,0.44725 0.29297,0.65625c0.033,0.064 0.06852,0.12259 0.10352,0.18359c0.081,0.145 0.16677,0.28497 0.25977,0.41797c0.043,0.062 0.08877,0.12264 0.13477,0.18164c0.1,0.129 0.20636,0.24928 0.31836,0.36328c0.044,0.045 0.08486,0.09177 0.13086,0.13477c0.163,0.151 0.33639,0.29016 0.52539,0.41016c0.485,0.308 1.05942,0.50989 1.73242,0.58789c0.708,0.082 1.42277,0.11106 2.13477,0.16406c3.471,-0.055 6.74566,-0.8803 9.84766,-2.4043c0.469,-0.23 0.89097,-0.57502 1.29297,-0.91602c0.266,-0.225 0.4162,-0.59872 0.1582,-0.88672c-0.166,-0.182 -0.47989,-0.35742 -0.71289,-0.35742c-0.028,0 -0.05508,0.00181 -0.08008,0.00781c-0.575,0.12 -1.13383,0.3507 -1.67383,0.5957c-0.634,0.287 -1.23738,0.64108 -1.85937,0.95508c-0.191,0.096 -0.40247,0.20794 -0.60547,0.21094h-0.01367c-0.204,0 -0.50727,-0.06817 -0.57227,-0.20117c-0.087,-0.176 -0.06259,-0.54006 0.06641,-0.66406c0.292,-0.28 0.6553,-0.51283 1.0293,-0.67383c1.006,-0.431 2.04283,-0.79161 3.04883,-1.22461c0.406,-0.175 0.78977,-0.42903 1.13477,-0.70703c0.445,-0.359 0.54536,-0.84723 0.31836,-1.24023c-0.165,-0.285 -0.40434,-0.38281 -0.65234,-0.38281c-0.153,0 -0.30813,0.03775 -0.45312,0.09375c-0.864,0.332 -1.71411,0.71272 -2.53711,1.13672c-0.899,0.464 -1.75353,1.01123 -2.64453,1.49023c-0.005,0.003 -0.01158,0.00291 -0.01758,0.00391c-0.085,0.049 -0.1782,0.08594 -0.2832,0.08594c-0.246,0 -0.45311,-0.15509 -0.53711,-0.37109c-0.025,-0.065 -0.04297,-0.13498 -0.04297,-0.20898c0,-0.099 0.03122,-0.18658 0.07422,-0.26758c-0.001,-0.003 -0.00781,-0.00977 -0.00781,-0.00977c0,0 0.00772,-0.00481 0.01172,-0.00781c0.004,-0.003 0.00772,-0.00381 0.01172,-0.00781c0.008,-0.013 0.05042,-0.04784 0.10742,-0.08984c0.01,-0.008 0.01925,-0.01444 0.03125,-0.02344c0.064,-0.047 0.14509,-0.10478 0.24609,-0.17578c0.01,-0.007 0.02125,-0.01448 0.03125,-0.02148c0.225,-0.155 0.52342,-0.35327 0.85742,-0.57227c1.039,-0.685 2.40528,-1.55966 2.86328,-1.84766c0.59,-0.372 1.17533,-0.75206 1.73633,-1.16406c0.234,-0.172 0.44584,-0.41106 0.58984,-0.66406c0.315,-0.554 -0.04944,-1.23242 -0.64844,-1.23242c-0.037,0 -0.07623,0.00281 -0.11523,0.00781c-0.511,0.071 -1.06447,0.23439 -1.48047,0.52539c-1.4,0.978 -2.74533,2.02964 -4.11133,3.05664c-0.292,0.22 -1.15474,1.11328 -1.42773,1.11328c-0.32,0 -0.57812,-0.26008 -0.57813,-0.58008c0,-0.254 1.71605,-1.9888 2.37305,-2.7168c0.601,-0.666 1.19744,-1.33839 1.77344,-2.02539c0.088,-0.104 0.15689,-0.21508 0.21289,-0.33008c0.111,-0.23 0.16292,-0.47733 0.16992,-0.73633c0.004,-0.129 -0.00353,-0.26058 -0.01953,-0.39258c-0.039,-0.33 -0.19392,-0.57959 -0.41992,-0.68359c-0.075,-0.035 -0.15905,-0.05273 -0.24805,-0.05273z"></path></g></g></svg>