<svg xmlns="http://www.w3.org/2000/svg" xmlns:xlink="http://www.w3.org/1999/xlink" viewBox="0,0,256,256" width="50px" height="50px"><g fill="#232629" fill-rule="nonzero" stroke="none" stroke-width="1" stroke-linecap="butt" stroke-linejoin="miter" stroke-miterlimit="10" stroke-dasharray="" stroke-dashoffset="0" font-family="none" font-weight="none" font-size="none" text-anchor="none" style="mix-blend-mode: normal"><g transform="scale(5.12,5.12)"><path d="M5,5v40h40v-40zM35,8.77344v9.22656h4v14h-4v9.35156l-9,-8v6.64844h-2v-6.77344l-9,8v-9.22656h-4v-14h4v-9.10156l9,8v-7.77344h2v7.64844zM33,13.22656l-5.36914,4.77344h5.36914zM17,13.35156v4.64844h5.22852zM13,20v10h2v-3.44922l7.36914,-6.55078zM27.49023,20l7.50977,6.67578v3.32422h2v-10zM24,21.22656l-7,6.22266v9.32422l7,-6.2207zM26,21.35156v9.32617l7,6.2207v-9.32422z"></path></g></g></svg>