<svg xmlns="http://www.w3.org/2000/svg" xmlns:xlink="http://www.w3.org/1999/xlink" viewBox="0,0,256,256" width="50px" height="50px"><g fill="#ffffff" fill-rule="nonzero" stroke="none" stroke-width="1" stroke-linecap="butt" stroke-linejoin="miter" stroke-miterlimit="10" stroke-dasharray="" stroke-dashoffset="0" font-family="none" font-weight="none" font-size="none" text-anchor="none" style="mix-blend-mode: normal"><g transform="scale(5.12,5.12)"><path d="M5,5v15.26758c0,0 2.96214,1.77952 3.24414,1.97852c4.209,2.975 9.75367,2.39319 13.26367,-1.25781c3.49,-3.63 3.79492,-9.20136 0.66992,-13.31836c-0.065,-0.087 -1.90625,-2.66992 -1.90625,-2.66992zM25.7207,5c0.187,0.26 0.39409,0.57927 0.62109,0.94727l0.19336,0.27148l-0.02148,0.01563c3.068,5.118 2.96017,10.31545 -0.04883,15.43945c-0.495,0.842 -0.35591,1.21078 0.24609,1.80078c2.793,2.733 5.54941,5.50562 8.31641,8.26563c1.223,1.22 1.22387,1.39184 0.04688,2.58984c-0.211,0.214 -0.42267,0.43067 -0.63867,0.63867c-1.084,1.047 -1.38078,1.05167 -2.42578,0.01367c-1.431,-1.423 -2.8562,-2.85425 -4.2832,-4.28125l0.01367,-0.01367c-1.397,-1.397 -2.82473,-2.76708 -4.17773,-4.20508c-0.574,-0.61 -0.97494,-0.67517 -1.71094,-0.20117c-3.371,2.168 -7.09361,2.73684 -10.97461,1.96484c-2.173,-0.432 -4.10895,-1.50447 -5.87695,-2.85547v19.60938h40v-40z"></path></g></g></svg>