<?xml version="1.0" encoding="UTF-8"?>
<svg version="1.1" xmlns="http://www.w3.org/2000/svg" width="180" height="180">
<path d="M0 0 C2.1065693 0.00315246 4.21171931 -0.02034117 6.31811523 -0.0456543 C30.51973791 -0.15994621 51.31413215 10.63185851 68.49584961 27.19067383 C73.06482291 31.86706813 76.83344868 36.78620422 80.30834961 42.31567383 C80.98317383 43.37334961 80.98317383 43.37334961 81.67163086 44.45239258 C89.77750795 58.02910931 92.67262922 72.43727252 92.62402344 88.00732422 C92.62087098 90.11389352 92.64436461 92.21904353 92.66967773 94.32543945 C92.78396964 118.52706213 81.99216493 139.32145637 65.43334961 156.50317383 C60.75695531 161.07214713 55.83781922 164.84077289 50.30834961 168.31567383 C49.60323242 168.76555664 48.89811523 169.21543945 48.17163086 169.67895508 C34.59491413 177.78483217 20.18675092 180.67995344 4.61669922 180.63134766 C2.51012992 180.6281952 0.40497991 180.65168883 -1.70141602 180.67700195 C-25.9030387 180.79129386 -46.69743293 169.99948915 -63.87915039 153.44067383 C-68.44812369 148.76427953 -72.21674946 143.84514344 -75.69165039 138.31567383 C-76.1415332 137.61055664 -76.59141602 136.90543945 -77.05493164 136.17895508 C-85.16080873 122.60223835 -88.05593 108.19407514 -88.00732422 92.62402344 C-88.00417176 90.51745414 -88.02766539 88.41230413 -88.05297852 86.3059082 C-88.16727042 62.10428552 -77.37546571 41.30989129 -60.81665039 24.12817383 C-56.14025609 19.55920053 -51.22112 15.79057476 -45.69165039 12.31567383 C-44.9865332 11.86579102 -44.28141602 11.4159082 -43.55493164 10.95239258 C-29.97821491 2.84651549 -15.5700517 -0.04860578 0 0 Z " fill="#000000" transform="translate(87.691650390625,-0.315673828125)"/>
<path d="M0 0 C2.60219805 1.50822586 4.9810595 3.24580403 7.375 5.0625 C8.01566406 5.53494141 8.65632813 6.00738281 9.31640625 6.49414062 C10.88489835 7.65295195 12.44348458 8.82515069 14 10 C11.59866602 11.21261392 9.18484742 12.38989828 6.7578125 13.55078125 C5.54678145 14.13782789 4.33584632 14.72507243 3.125 15.3125 C2.52558594 15.59544922 1.92617187 15.87839844 1.30859375 16.16992188 C-4.48602738 19.00438405 -10.18054128 22.44489627 -12.5390625 28.78515625 C-13.98328078 35.72474746 -13.15566147 42.96222111 -12.24462891 49.91821289 C-10.15786817 67.67650513 -10.15786817 67.67650513 -14.8125 73.875 C-16.39453125 75.5546875 -16.39453125 75.5546875 -18 77 C-18.51949219 77.55945313 -19.03898437 78.11890625 -19.57421875 78.6953125 C-21 80 -21 80 -23 80 C-23 80.66 -23 81.32 -23 82 C-22.26136719 82.23976563 -21.52273437 82.47953125 -20.76171875 82.7265625 C-17.60808798 84.18071191 -16.06465075 85.75257301 -13.8125 88.375 C-13.13832031 89.14585938 -12.46414062 89.91671875 -11.76953125 90.7109375 C-8.37675679 95.09982455 -7.75194707 98.01791973 -7.77294922 103.60449219 C-7.77265717 104.25856552 -7.77236511 104.91263885 -7.77206421 105.58653259 C-7.77345324 107.74011683 -7.78899392 109.89335149 -7.8046875 112.046875 C-7.80841916 113.54331269 -7.81126541 115.03975283 -7.81326294 116.53619385 C-7.8208874 120.4686359 -7.84052562 124.40092947 -7.8626709 128.33331299 C-7.88315494 132.34849031 -7.89227012 136.3636917 -7.90234375 140.37890625 C-7.92377272 148.25267979 -7.95894511 156.1263043 -8 164 C-13.28 164 -18.56 164 -24 164 C-24.01458252 162.02273926 -24.02916504 160.04547852 -24.04418945 158.00830078 C-24.09603862 151.44237335 -24.16137672 144.8766859 -24.23571491 138.31097603 C-24.28025776 134.33396596 -24.3195482 130.35705454 -24.34643555 126.37988281 C-24.3726305 122.5347035 -24.41314415 118.68990715 -24.46318626 114.84496689 C-24.47974641 113.38516921 -24.49132774 111.92530547 -24.49761391 110.4654274 C-24.53662007 102.23215319 -24.9779255 94.75527795 -28 87 C-29.918125 86.7215625 -29.918125 86.7215625 -31.875 86.4375 C-39.04792643 84.87125973 -45.00640755 80.26743462 -50 75 C-47.65307404 72.33861664 -45.35178813 71.1145446 -42.125 69.6875 C-37.42001435 67.41399599 -34.911715 65.32060935 -32 61 C-30.85472261 57.56416784 -30.86723343 54.86922241 -30.875 51.25 C-30.87242188 50.05890625 -30.86984375 48.8678125 -30.8671875 47.640625 C-30.99920118 44.02189714 -31.48332042 40.58152892 -32 37 C-33.40300393 19.62044687 -33.40300393 19.62044687 -28.5234375 13.5546875 C-28.02070312 13.04164062 -27.51796875 12.52859375 -27 12 C-26.53851563 11.48695312 -26.07703125 10.97390625 -25.6015625 10.4453125 C-19.56056413 4.526974 -8.4790441 -2.82270113 0 0 Z " fill="#FAFAFA" transform="translate(113,16)"/>
</svg>
