<svg xmlns="http://www.w3.org/2000/svg"  viewBox="0 0 48 48" width="48px" height="48px"><path fill="#fff" d="M45.898,36.731c0.354,1.015,0.269,2.096-0.203,3.037c-0.34,0.686-0.826,1.217-1.42,1.692	c-0.717,0.564-1.609,1.043-2.684,1.504c-1.283,0.545-2.849,1.058-3.567,1.246c-1.835,0.475-3.599,0.776-5.388,0.79	c-2.557,0.023-4.76-0.578-6.326-2.115c-0.811,0.099-1.632,0.155-2.458,0.155c-0.783,0-1.557-0.047-2.326-0.141	c-1.571,1.528-3.765,2.125-6.312,2.101c-1.788-0.014-3.552-0.315-5.392-0.79c-0.712-0.188-2.279-0.7-3.562-1.246	c-1.076-0.461-1.967-0.94-2.68-1.504c-0.599-0.475-1.085-1.006-1.425-1.692c-0.467-0.94-0.557-2.021-0.198-3.037	c-0.33-0.776-0.415-1.664-0.156-2.646c0.118-0.446,0.311-0.86,0.557-1.227c-0.052-0.193-0.094-0.39-0.123-0.606	c-0.179-1.288,0.269-2.463,1.113-3.375c0.415-0.456,0.863-0.771,1.33-0.973c-0.344-1.457-0.524-2.957-0.524-4.489	c0-10.839,8.817-19.625,19.696-19.625c3.736,0,7.232,1.034,10.214,2.839c0.538,0.329,1.066,0.682,1.571,1.058	c0.25,0.188,0.5,0.381,0.741,0.583c0.245,0.197,0.486,0.404,0.717,0.616c0.698,0.635,1.354,1.316,1.953,2.045	c0.203,0.24,0.396,0.489,0.585,0.743c0.382,0.503,0.736,1.025,1.061,1.565c0.495,0.809,0.929,1.655,1.307,2.534	c0.25,0.588,0.467,1.189,0.66,1.805c0.288,0.921,0.51,1.871,0.661,2.849c0.047,0.324,0.09,0.653,0.123,0.982	c0.066,0.658,0.104,1.326,0.104,2.007c0,1.514-0.179,2.999-0.514,4.433c0.519,0.202,1.01,0.531,1.467,1.029	c0.844,0.912,1.293,2.092,1.113,3.38c-0.028,0.212-0.071,0.409-0.123,0.602c0.245,0.367,0.439,0.78,0.557,1.227	C46.309,35.067,46.224,35.955,45.898,36.731z"/><linearGradient id="G0Jpwzc9gkuJdD7CvJwJVa" x1="5.66" x2="42.193" y1="23.549" y2="23.549" gradientUnits="userSpaceOnUse"><stop offset="0" stop-color="#ff8100"/><stop offset="1" stop-color="#ff8100"/></linearGradient><path fill="url(#G0Jpwzc9gkuJdD7CvJwJVa)" d="M40.307,23.548c0-8.992-7.334-16.281-16.381-16.281S7.546,14.557,7.546,23.548	s7.334,16.281,16.381,16.281S40.307,32.54,40.307,23.548z M5.66,23.548c0-10.027,8.178-18.155,18.266-18.155	s18.266,8.128,18.266,18.155s-8.178,18.155-18.266,18.155S5.66,33.575,5.66,23.548z"/><linearGradient id="G0Jpwzc9gkuJdD7CvJwJVb" x1="13.866" x2="35.058" y1="8.398" y2="40.313" gradientUnits="userSpaceOnUse"><stop offset="0" stop-color="#ffd21e"/><stop offset=".364" stop-color="#feca17"/><stop offset=".941" stop-color="#fbb302"/><stop offset="1" stop-color="#fbb000"/></linearGradient><path fill="url(#G0Jpwzc9gkuJdD7CvJwJVb)" d="M23.926,39.921	c9.104,0,16.484-7.33,16.484-16.373S33.03,7.176,23.926,7.176S7.442,14.506,7.442,23.548S14.823,39.921,23.926,39.921z"/><linearGradient id="G0Jpwzc9gkuJdD7CvJwJVc" x1="4.956" x2="20.549" y1="34.897" y2="34.897" gradientUnits="userSpaceOnUse"><stop offset="0" stop-color="#ffd21e"/><stop offset=".364" stop-color="#feca17"/><stop offset=".941" stop-color="#fbb302"/><stop offset="1" stop-color="#fbb000"/></linearGradient><path fill="url(#G0Jpwzc9gkuJdD7CvJwJVc)" d="M19.667,39.803	c1.3-1.876,1.208-3.284-0.576-5.038c-1.784-1.754-2.822-4.32-2.822-4.32s-0.388-1.49-1.271-1.353	c-0.883,0.137-1.532,2.364,0.318,3.727c1.85,1.362-0.369,2.288-1.08,1.008c-0.712-1.279-2.656-4.568-3.664-5.197	c-1.008-0.629-1.717-0.277-1.48,1.02c0.238,1.297,4.452,4.439,4.042,5.119c-0.41,0.68-1.855-0.799-1.855-0.799	s-4.522-4.049-5.506-2.994c-0.985,1.055,0.747,1.939,3.214,3.409c2.468,1.469,2.659,1.858,2.309,2.414	c-0.351,0.556-5.797-3.963-6.309-2.047c-0.511,1.916,5.559,2.472,5.184,3.794c-0.375,1.323-4.276-2.503-5.074-1.012	c-0.798,1.491,5.505,3.243,5.556,3.256C12.69,41.308,17.861,42.409,19.667,39.803z"/><linearGradient id="G0Jpwzc9gkuJdD7CvJwJVd" x1="3.166" x2="22.381" y1="34.962" y2="34.962" gradientUnits="userSpaceOnUse"><stop offset="0" stop-color="#ff8100"/><stop offset="1" stop-color="#ff8100"/></linearGradient><path fill="url(#G0Jpwzc9gkuJdD7CvJwJVd)" d="M9.759,26.511	c-0.759,0-1.438,0.31-1.911,0.872c-0.293,0.348-0.598,0.909-0.623,1.749C6.906,29.041,6.6,28.99,6.314,28.99	c-0.727,0-1.383,0.277-1.847,0.78c-0.596,0.645-0.861,1.438-0.746,2.232c0.055,0.378,0.182,0.717,0.372,1.03	c-0.4,0.322-0.695,0.77-0.838,1.309c-0.112,0.423-0.226,1.303,0.371,2.209c-0.038,0.059-0.074,0.121-0.107,0.184	c-0.359,0.677-0.382,1.443-0.065,2.156c0.481,1.08,1.675,1.932,3.994,2.845c1.443,0.568,2.763,0.932,2.774,0.935	c1.907,0.492,3.632,0.741,5.125,0.741c2.745,0,4.71-0.835,5.841-2.483c1.82-2.653,1.56-5.08-0.795-7.419	c-1.303-1.294-2.17-3.203-2.35-3.622c-0.364-1.24-1.326-2.619-2.925-2.619h0c-0.135,0-0.271,0.011-0.405,0.032	c-0.701,0.109-1.313,0.51-1.75,1.113c-0.472-0.583-0.931-1.047-1.346-1.309C10.991,26.711,10.366,26.511,9.759,26.511z M9.759,28.375c0.239,0,0.531,0.101,0.853,0.304c1,0.63,2.93,3.927,3.636,5.209c0.237,0.43,0.641,0.611,1.006,0.611	c0.723,0,1.287-0.714,0.066-1.622c-1.836-1.366-1.192-3.598-0.316-3.735c0.038-0.006,0.076-0.009,0.113-0.009	c0.797,0,1.149,1.365,1.149,1.365s1.03,2.572,2.801,4.33c1.77,1.758,1.862,3.17,0.572,5.05c-0.88,1.282-2.565,1.45-4.291,1.45	c-1.791,0-3.629-0.314-4.658-0.579c-0.051-0.013-6.303-1.652-5.511-3.147c0.133-0.251,0.353-0.352,0.629-0.352	c1.116,0,3.146,1.65,4.018,1.65c0.195,0,0.34-0.15,0.397-0.351c0.388-1.389-5.661-1.815-5.153-3.735	c0.09-0.34,0.332-0.478,0.674-0.477c1.475,0,4.783,2.577,5.476,2.577c0.053,0,0.091-0.015,0.112-0.048	c0.347-0.557,0.187-1.011-2.261-2.484c-2.449-1.473-4.198-2.295-3.22-3.352c0.113-0.122,0.272-0.176,0.466-0.176	c1.487,0,4.999,3.177,4.999,3.177s0.948,0.98,1.522,0.98c0.132,0,0.244-0.052,0.32-0.179c0.406-0.681-3.776-3.831-4.012-5.13	C8.984,28.821,9.255,28.375,9.759,28.375z"/><linearGradient id="G0Jpwzc9gkuJdD7CvJwJVe" x1="27.223" x2="42.816" y1="34.897" y2="34.897" gradientUnits="userSpaceOnUse"><stop offset="0" stop-color="#ffd21e"/><stop offset=".364" stop-color="#feca17"/><stop offset=".941" stop-color="#fbb302"/><stop offset="1" stop-color="#fbb000"/></linearGradient><path fill="url(#G0Jpwzc9gkuJdD7CvJwJVe)" d="M28.105,39.803	c-1.3-1.876-1.208-3.284,0.576-5.038c1.784-1.754,2.822-4.32,2.822-4.32s0.388-1.49,1.271-1.353	c0.883,0.137,1.532,2.364-0.318,3.727c-1.85,1.362,0.368,2.288,1.08,1.008c0.712-1.279,2.656-4.568,3.664-5.197	c1.008-0.629,1.717-0.277,1.48,1.02c-0.238,1.297-4.452,4.439-4.042,5.119c0.41,0.68,1.855-0.799,1.855-0.799	S41.016,29.92,42,30.975c0.984,1.055-0.747,1.939-3.214,3.409c-2.468,1.469-2.659,1.858-2.309,2.414	c0.351,0.556,5.797-3.963,6.309-2.047c0.511,1.916-5.559,2.472-5.184,3.794c0.375,1.323,4.276-2.503,5.074-1.012	c0.798,1.491-5.505,3.243-5.556,3.256C35.083,41.308,29.912,42.409,28.105,39.803z"/><linearGradient id="G0Jpwzc9gkuJdD7CvJwJVf" x1="25.391" x2="44.607" y1="34.962" y2="34.962" gradientUnits="userSpaceOnUse"><stop offset="0" stop-color="#ff8100"/><stop offset="1" stop-color="#ff8100"/></linearGradient><path fill="url(#G0Jpwzc9gkuJdD7CvJwJVf)" d="M38.014,26.511	c0.759,0,1.437,0.31,1.911,0.872c0.293,0.348,0.598,0.909,0.623,1.749c0.318-0.091,0.624-0.142,0.91-0.142	c0.727,0,1.383,0.277,1.847,0.78c0.596,0.645,0.861,1.438,0.746,2.232c-0.055,0.378-0.182,0.717-0.372,1.03	c0.4,0.322,0.695,0.77,0.838,1.309c0.112,0.423,0.226,1.303-0.371,2.209c0.038,0.059,0.074,0.121,0.107,0.184	c0.359,0.677,0.382,1.443,0.065,2.156c-0.481,1.08-1.675,1.932-3.994,2.845c-1.443,0.568-2.763,0.932-2.774,0.935	c-1.907,0.492-3.632,0.741-5.126,0.741c-2.745,0-4.71-0.835-5.841-2.483c-1.82-2.653-1.56-5.08,0.795-7.419	c1.303-1.294,2.17-3.203,2.35-3.622c0.364-1.24,1.326-2.619,2.925-2.619h0c0.135,0,0.271,0.011,0.405,0.032	c0.7,0.109,1.313,0.51,1.75,1.113c0.472-0.583,0.931-1.047,1.346-1.309C36.781,26.711,37.406,26.511,38.014,26.511z M38.014,28.375	c-0.239,0-0.531,0.101-0.853,0.304c-1,0.63-2.93,3.927-3.636,5.209c-0.237,0.43-0.641,0.611-1.006,0.611	c-0.723,0-1.287-0.714-0.066-1.622c1.837-1.366,1.192-3.598,0.316-3.735c-0.038-0.006-0.076-0.009-0.113-0.009	c-0.797,0-1.149,1.365-1.149,1.365s-1.031,2.572-2.801,4.33c-1.77,1.758-1.862,3.17-0.572,5.05c0.88,1.282,2.565,1.45,4.291,1.45	c1.791,0,3.629-0.314,4.658-0.579c0.051-0.013,6.303-1.652,5.511-3.147c-0.133-0.251-0.353-0.352-0.629-0.352	c-1.116,0-3.146,1.65-4.018,1.65c-0.195,0-0.34-0.15-0.397-0.351c-0.388-1.389,5.661-1.815,5.153-3.735	c-0.09-0.34-0.332-0.478-0.674-0.477c-1.475,0-4.783,2.577-5.476,2.577c-0.053,0-0.091-0.015-0.112-0.048	c-0.347-0.557-0.187-1.011,2.261-2.484c2.449-1.473,4.198-2.295,3.22-3.352c-0.112-0.122-0.272-0.176-0.466-0.176	c-1.487,0-4.999,3.177-4.999,3.177s-0.948,0.98-1.521,0.98c-0.132,0-0.244-0.052-0.32-0.179c-0.406-0.681,3.776-3.831,4.012-5.13	C38.789,28.821,38.517,28.375,38.014,28.375z"/><linearGradient id="G0Jpwzc9gkuJdD7CvJwJVg" x1="17.867" x2="30.099" y1="26.353" y2="26.353" gradientUnits="userSpaceOnUse"><stop offset="0" stop-color="#41474a"/><stop offset="1" stop-color="#323538"/></linearGradient><path fill="url(#G0Jpwzc9gkuJdD7CvJwJVg)" d="M30.099,24.186	c0-2.109-2.735,1.105-6.116,1.119c-3.381-0.014-6.116-3.228-6.116-1.119c0,1.398,0.669,3.672,2.465,5.051	c0.357-1.23,2.322-2.215,2.603-2.074c0.4,0.201,0.377,0.76,1.048,1.252c0.671-0.492,0.648-1.05,1.048-1.252	c0.281-0.141,2.245,0.844,2.602,2.074C29.43,27.857,30.099,25.584,30.099,24.186L30.099,24.186z"/><linearGradient id="G0Jpwzc9gkuJdD7CvJwJVh" x1="20.333" x2="27.634" y1="28.782" y2="28.782" gradientUnits="userSpaceOnUse"><stop offset="0" stop-color="#f52537"/><stop offset="1" stop-color="#c8202c"/></linearGradient><path fill="url(#G0Jpwzc9gkuJdD7CvJwJVh)" d="M25.031,27.163	c-0.4,0.201-0.377,0.76-1.048,1.252c-0.67-0.492-0.648-1.05-1.048-1.252c-0.281-0.141-2.245,0.844-2.602,2.074	c0.908,0.697,2.105,1.166,3.649,1.178c0,0,0.001,0,0.001,0c0,0,0.001,0,0.001,0c1.544-0.011,2.741-0.48,3.649-1.178	C27.277,28.007,25.312,27.021,25.031,27.163L25.031,27.163z"/><linearGradient id="G0Jpwzc9gkuJdD7CvJwJVi" x1="33.371" x2="36.401" y1="19.739" y2="19.739" gradientUnits="userSpaceOnUse"><stop offset="0" stop-color="#ff8100"/><stop offset="1" stop-color="#ff8100"/></linearGradient><path fill="url(#G0Jpwzc9gkuJdD7CvJwJVi)" d="M34.886,21.254	c0.837,0,1.515-0.678,1.515-1.515c0-0.837-0.678-1.515-1.515-1.515c-0.837,0-1.515,0.678-1.515,1.515	C33.371,20.576,34.05,21.254,34.886,21.254z"/><linearGradient id="G0Jpwzc9gkuJdD7CvJwJVj" x1="11.541" x2="14.571" y1="19.739" y2="19.739" gradientUnits="userSpaceOnUse"><stop offset="0" stop-color="#ff8100"/><stop offset="1" stop-color="#ff8100"/></linearGradient><path fill="url(#G0Jpwzc9gkuJdD7CvJwJVj)" d="M13.056,21.254	c0.837,0,1.515-0.678,1.515-1.515c0-0.837-0.678-1.515-1.515-1.515c-0.837,0-1.515,0.678-1.515,1.515	C11.541,20.576,12.219,21.254,13.056,21.254z"/><linearGradient id="G0Jpwzc9gkuJdD7CvJwJVk" x1="27.53" x2="32.24" y1="18.015" y2="18.015" gradientUnits="userSpaceOnUse"><stop offset="0" stop-color="#41474a"/><stop offset="1" stop-color="#323538"/></linearGradient><path fill="url(#G0Jpwzc9gkuJdD7CvJwJVk)" d="M29.545,19.08	c0.6,0.211,0.839,1.442,1.445,1.12c1.148-0.609,1.584-2.031,0.974-3.176c-0.611-1.145-2.036-1.58-3.185-0.971	c-1.148,0.609-1.584,2.031-0.974,3.176C28.094,19.77,29.009,18.891,29.545,19.08z"/><linearGradient id="G0Jpwzc9gkuJdD7CvJwJVl" x1="15.757" x2="20.467" y1="18.015" y2="18.015" gradientUnits="userSpaceOnUse"><stop offset="0" stop-color="#41474a"/><stop offset="1" stop-color="#323538"/></linearGradient><path fill="url(#G0Jpwzc9gkuJdD7CvJwJVl)" d="M18.451,19.08	c-0.6,0.211-0.839,1.442-1.445,1.12c-1.148-0.609-1.584-2.031-0.974-3.176c0.611-1.145,2.036-1.58,3.185-0.971	c1.148,0.609,1.584,2.031,0.974,3.176C19.903,19.77,18.988,18.891,18.451,19.08z"/></svg>