<svg xmlns="http://www.w3.org/2000/svg"  viewBox="0 0 48 48" width="48px" height="48px"><linearGradient id="C_pbyvtxEsx10IXWAmi4pa" x1="6" x2="42" y1="24" y2="24" gradientUnits="userSpaceOnUse"><stop offset="0" stop-color="#5340ff"/><stop offset=".384" stop-color="#4a31ff"/><stop offset="1" stop-color="#3811ff"/></linearGradient><path fill="url(#C_pbyvtxEsx10IXWAmi4pa)" d="M35,6H13c-3.866,0-7,3.134-7,7v22c0,3.866,3.134,7,7,7h22c3.866,0,7-3.134,7-7V13	C42,9.134,38.866,6,35,6z"/><g opacity=".07"><path d="M18.397,19.831c0.056-0.254,0.141-0.639-0.11-0.957c-0.109-0.138-0.322-0.305-0.715-0.313 c-0.067-0.001-0.139-0.013-0.213-0.024c-0.131-0.019-0.265-0.037-0.392-0.037c-0.348,0-0.948,0.135-1.061,1.04 c-0.079,0.636-0.369,1.186-0.862,1.635c-0.604,0.551-1.322,0.843-2.076,0.843c-1.416,0-2.586-1.009-2.913-2.511 c-0.179-0.821-0.699-0.994-1.104-0.994c-0.108,0-0.22,0.012-0.332,0.025c-0.071,0.008-0.142,0.018-0.209,0.018 c-0.32,0-0.565,0.099-0.728,0.295c-0.252,0.303-0.183,0.679-0.137,0.928l0.02,0.117c0.305,2.149,1.623,3.651,3.81,4.342 c0.371,0.117,0.37,0.146,0.359,0.493c-0.02,0.622-0.019,1.244-0.019,1.866c0,0.578,0.001,1.156-0.015,1.734 c-0.011,0.375,0.08,0.656,0.278,0.859c0.264,0.272,0.631,0.309,0.956,0.309c0.307-0.001,0.754-0.002,1.056-0.322 c0.198-0.21,0.283-0.497,0.261-0.877c-0.025-0.426-0.019-0.849-0.013-1.298c0.003-0.197,0.005-0.395,0.005-0.592V25.91h-0.014 c0-0.015,0-0.03,0.001-0.046c0.005-0.43,0.01-0.874-0.012-1.318c-0.006-0.13,0.007-0.176,0.01-0.184c0,0,0,0,0,0 c0.004,0,0.051-0.031,0.193-0.068c2.053-0.537,3.568-2.207,3.954-4.358L18.397,19.831z"/><path d="M23.381,18.249c-3.171,0-5.751,2.58-5.751,5.751c0,3.171,2.58,5.751,5.751,5.751c3.171,0,5.751-2.58,5.751-5.751 C29.133,20.829,26.553,18.249,23.381,18.249z M26.681,24c0,1.819-1.48,3.299-3.3,3.299c-1.819,0-3.299-1.48-3.299-3.299 c0-1.819,1.48-3.299,3.299-3.299C25.201,20.701,26.681,22.181,26.681,24z"/><path d="M39.274,18.501c-0.676,0-1.226,0.55-1.226,1.226v4.18c0,1.731-1.409,3.14-3.14,3.14s-3.14-1.408-3.14-3.14v-4.18 c0-0.676-0.55-1.226-1.226-1.226s-1.226,0.55-1.226,1.226v4.18c0,3.083,2.508,5.592,5.592,5.592s5.592-2.508,5.592-5.592v-4.18 C40.5,19.051,39.95,18.501,39.274,18.501z"/></g><path d="M39.274,18.001c-0.952,0-1.726,0.774-1.726,1.726v4.18c0,1.456-1.184,2.64-2.64,2.64	s-2.64-1.184-2.64-2.64v-4.18c0-0.952-0.774-1.726-1.726-1.726c-0.952,0-1.726,0.774-1.726,1.726v1.197	c-1.076-1.893-3.107-3.175-5.435-3.175c-1.737,0-3.309,0.713-4.443,1.86c0.035-0.302,0.019-0.691-0.259-1.044	c-0.176-0.223-0.509-0.492-1.097-0.504c-0.047-0.001-0.098-0.011-0.151-0.019C17.303,18.023,17.143,18,16.967,18	c-0.847,0-1.443,0.566-1.557,1.478c-0.064,0.514-0.301,0.961-0.703,1.328c-0.511,0.466-1.112,0.712-1.739,0.712	c-0.977,0-2.106-0.655-2.424-2.118c-0.192-0.882-0.772-1.387-1.593-1.387c-0.127,0-0.259,0.013-0.39,0.029	c-0.051,0.006-0.102,0.015-0.151,0.015c-0.592,0-0.931,0.259-1.112,0.476c-0.402,0.483-0.296,1.061-0.245,1.338l0.017,0.097	c0.334,2.353,1.771,3.995,4.155,4.749c0.003,0.001,0.007,0.002,0.01,0.003c-0.02,0.626-0.019,1.253-0.019,1.88	c0,0.573,0.001,1.147-0.015,1.72c-0.014,0.51,0.127,0.921,0.419,1.222C12.067,30,12.674,30,12.934,30	c0.347-0.001,0.971-0.002,1.42-0.48c0.293-0.311,0.426-0.731,0.396-1.249c-0.024-0.408-0.018-0.823-0.012-1.262	c0.003-0.2,0.005-0.399,0.005-0.599v-1.002h-0.009c0.001-0.224-0.001-0.452-0.008-0.681c0.949-0.28,1.777-0.794,2.452-1.466	C17.149,23.505,17.13,23.75,17.13,24c0,3.447,2.804,6.251,6.251,6.251c2.694,0,4.988-1.716,5.865-4.11	c0.893,2.256,3.092,3.857,5.662,3.857c3.359,0,6.092-2.733,6.092-6.092v-4.18C41,18.775,40.226,18.001,39.274,18.001z M26.181,24	c0,1.544-1.256,2.799-2.8,2.799c-1.544,0-2.799-1.256-2.799-2.799c0-1.544,1.256-2.799,2.799-2.799	C24.925,21.201,26.181,22.456,26.181,24z" opacity=".05"/><path fill="#f7f7fe" d="M13.743,26.411c0,0.64-0.029,1.281,0.008,1.919c0.037,0.633-0.325,0.669-0.808,0.67 c-0.473,0.001-0.759-0.083-0.743-0.653c0.034-1.199-0.004-2.4,0.034-3.599c0.017-0.551-0.106-0.796-0.708-0.986 c-1.913-0.605-3.173-1.87-3.466-3.936c-0.046-0.327-0.217-0.77,0.35-0.77c0.438,0,0.976-0.274,1.156,0.557 c0.614,2.824,3.731,3.832,5.814,1.932c0.578-0.527,0.928-1.189,1.022-1.943c0.107-0.857,0.728-0.55,1.16-0.541 c0.563,0.011,0.376,0.483,0.321,0.788c-0.336,1.872-1.628,3.449-3.588,3.962c-0.47,0.123-0.598,0.318-0.576,0.761 c0.03,0.612,0.008,1.226,0.008,1.839C13.732,26.411,13.737,26.411,13.743,26.411z"/><path fill="#f7f7fe" d="M23.381,29.251c-2.895,0-5.251-2.356-5.251-5.251c0-2.895,2.356-5.251,5.251-5.251 c2.896,0,5.251,2.356,5.251,5.251C28.633,26.896,26.277,29.251,23.381,29.251z M23.381,20.201c-2.095,0-3.799,1.704-3.799,3.799 s1.704,3.8,3.799,3.8s3.8-1.704,3.8-3.8S25.476,20.201,23.381,20.201z"/><path fill="#f7f7fe" d="M34.908,28.999c-2.808,0-5.092-2.284-5.092-5.092v-4.18c0-0.401,0.325-0.726,0.726-0.726 s0.726,0.325,0.726,0.726v4.18c0,2.007,1.633,3.64,3.64,3.64c2.007,0,3.64-1.633,3.64-3.64v-4.18c0-0.401,0.325-0.726,0.726-0.726 c0.401,0,0.726,0.325,0.726,0.726v4.18C40,26.715,37.716,28.999,34.908,28.999z"/></svg>