<?xml version="1.0" encoding="UTF-8" standalone="no"?>
<svg
   stroke="#ffffff"
   fill="transparent"
   fill-rule="evenodd"
   height="24px"
   style="flex:none;line-height:1"
   viewBox="0 0 24 24"
   width="24px"
   version="1.1"
   id="svg1"
   sodipodi:docname="deepseek-light.svg"
   inkscape:version="1.4.2 (ebf0e940d0, 2025-05-08)"
   xmlns:inkscape="http://www.inkscape.org/namespaces/inkscape"
   xmlns:sodipodi="http://sodipodi.sourceforge.net/DTD/sodipodi-0.dtd"
   xmlns="http://www.w3.org/2000/svg"
   xmlns:svg="http://www.w3.org/2000/svg">
  <defs
     id="defs1" />
  <sodipodi:namedview
     id="namedview1"
     pagecolor="#ffffff"
     bordercolor="#000000"
     borderopacity="0.25"
     inkscape:showpageshadow="2"
     inkscape:pageopacity="0.0"
     inkscape:pagecheckerboard="0"
     inkscape:deskcolor="#d1d1d1"
     inkscape:zoom="36.291667"
     inkscape:cx="11.986223"
     inkscape:cy="12"
     inkscape:window-width="1920"
     inkscape:window-height="1052"
     inkscape:window-x="0"
     inkscape:window-y="0"
     inkscape:window-maximized="1"
     inkscape:current-layer="svg1" />
  <title
     id="title1">DeepSeek</title>
  <path
     d="m 23.152449,4.8546343 c -0.241122,-0.1177129 -0.345544,0.1072707 -0.48604,0.2221358 -0.04842,0.037023 -0.08923,0.085437 -0.130054,0.1291045 C 22.183216,5.582746 21.77122,5.8295635 21.232968,5.8001352 20.446,5.7564675 19.773897,6.003285 19.179637,6.60514 19.05338,5.8627889 18.63379,5.420416 17.995862,5.1356266 17.661709,4.9875361 17.323759,4.8403949 17.089282,4.5185828 16.926003,4.2898019 16.881386,4.0344408 16.799746,3.7838261 16.747535,3.6319384 16.695323,3.4772028 16.521602,3.4515717 c -0.18986,-0.029428 -0.263905,0.1291046 -0.33795,0.2620063 -0.297131,0.5429985 -0.411996,1.1410563 -0.400604,1.7467085 0.02563,1.3631921 0.600906,2.4491891 1.74481,3.2209685 0.130054,0.088285 0.163279,0.1775187 0.122459,0.3066233 -0.07784,0.2658035 -0.170873,0.5240125 -0.252513,0.7907653 -0.05221,0.1699244 -0.130054,0.2059977 -0.312319,0.1329018 A 5.2458214,5.2458214 0 0 1 15.437503,8.7913736 C 14.623955,8.0053547 13.889198,7.1376963 12.972176,6.4579988 A 10.788773,10.788773 0 0 0 12.31811,6.0108794 c -0.935059,-0.9084783 0.123409,-1.6546266 0.368328,-1.7429113 0.25631,-0.093031 0.08828,-0.4100968 -0.739504,-0.4062996 -0.827788,0.0038 -1.585328,0.2800429 -2.5507637,0.6493199 A 2.9001057,2.9001057 0 0 1 8.9547467,4.6410422 9.110414,9.110414 0 0 0 6.2179202,4.5442138 C 4.4284933,4.7435664 2.9997996,5.5903404 1.9489266,7.0342228 0.68636015,8.7695397 0.38922984,10.742181 0.75281102,12.798361 c 0.38256718,2.168197 1.48944878,3.96332 3.18964168,5.366382 1.7637959,1.455274 3.7943445,2.168197 6.1115813,2.031498 1.40686,-0.08069 2.974151,-0.269601 4.740795,-1.765694 0.44617,0.222135 0.913224,0.31042 1.68975,0.376871 0.598058,0.05601 1.173333,-0.02848 1.618554,-0.12151 0.697734,-0.148091 0.649319,-0.794563 0.397755,-0.912276 -2.045737,-0.953095 -1.596719,-0.564832 -2.005866,-0.87905 1.04043,-1.23029 2.606772,-2.508045 3.220019,-6.647934 0.04746,-0.3294069 0.0066,-0.5363538 0,-0.8021573 -0.0038,-0.1613807 0.03323,-0.2249837 0.218338,-0.2430203 a 3.961421,3.961421 0 0 0 1.466666,-0.4509166 c 1.32522,-0.7243145 1.860624,-1.9128357 1.986881,-3.3386815 0.01899,-0.2183386 -0.0038,-0.4433222 -0.234477,-0.5581873 z M 11.602339,17.687246 C 9.6192554,16.128499 8.6576164,15.614928 8.2608098,15.636762 c -0.3721249,0.02278 -0.3047247,0.44712 -0.2230851,0.724315 0.085437,0.273398 0.1965047,0.461359 0.3521896,0.701531 0.10822,0.158533 0.1822652,0.394908 -0.1072707,0.572427 C 7.643766,18.029943 6.5340365,17.502133 6.4818251,17.476502 5.1898304,16.715165 4.1085798,15.710808 3.348192,14.337173 2.6134353,13.014801 2.1862512,11.596549 2.1160031,10.082419 2.0970171,9.7159899 2.2042878,9.5868854 2.5688183,9.5204345 a 4.4579039,4.4579039 0 0 1 1.4514768,-0.037023 c 2.0239036,0.296181 3.7459304,1.2008625 5.1907621,2.6333535 0.8239908,0.816396 1.4476798,1.791325 2.0903548,2.744421 0.683494,1.011951 1.418251,1.976438 2.354259,2.766254 0.330356,0.277195 0.593311,0.48794 0.845825,0.642675 -0.761338,0.08544 -2.031498,0.104423 -2.899157,-0.582869 z m 0.949298,-6.11348 a 0.29048522,0.29048522 0 0 1 0.393959,-0.272448 0.28668803,0.28668803 0 0 1 0.18986,0.273398 0.29048522,0.29048522 0 0 1 -0.294283,0.291434 0.28763733,0.28763733 0 0 1 -0.288586,-0.292384 z m 2.952317,1.51508 c -0.189859,0.07689 -0.37877,0.143344 -0.560086,0.151888 a 1.1818761,1.1818761 0 0 1 -0.757539,-0.241122 c -0.260108,-0.218338 -0.446171,-0.339849 -0.524013,-0.719568 a 1.6422857,1.6422857 0 0 1 0.01519,-0.558187 c 0.06645,-0.310421 -0.0076,-0.509773 -0.226882,-0.69014 -0.177519,-0.14809 -0.404401,-0.18891 -0.653118,-0.18891 a 0.53065764,0.53065764 0 0 1 -0.241121,-0.07404 c -0.104423,-0.05126 -0.18986,-0.180367 -0.10822,-0.339849 0.02658,-0.05126 0.151887,-0.17657 0.182265,-0.199353 0.33795,-0.191758 0.728112,-0.129104 1.087896,0.01519 0.334153,0.136699 0.586666,0.387314 0.950247,0.742351 0.371176,0.428134 0.438576,0.546796 0.650269,0.867659 0.167077,0.251564 0.318964,0.509773 0.422438,0.805004 0.0636,0.185114 -0.01804,0.336052 -0.237325,0.429083 z"
     id="path1"
     style="stroke-width:0.949298" />
</svg>
