<?xml version="1.0" encoding="UTF-8" standalone="no"?>
<svg
   stroke="#232629"
   fill="transparent"
   fill-rule="evenodd"
   height="24px"
   style="flex:none;line-height:1"
   viewBox="0 0 24 24"
   width="24px"
   version="1.1"
   id="svg1"
   sodipodi:docname="deepseek-dark.svg"
   inkscape:version="1.4.2 (ebf0e940d0, 2025-05-08)"
   xmlns:inkscape="http://www.inkscape.org/namespaces/inkscape"
   xmlns:sodipodi="http://sodipodi.sourceforge.net/DTD/sodipodi-0.dtd"
   xmlns="http://www.w3.org/2000/svg"
   xmlns:svg="http://www.w3.org/2000/svg">
  <defs
     id="defs1" />
  <sodipodi:namedview
     id="namedview1"
     pagecolor="#ffffff"
     bordercolor="#000000"
     borderopacity="0.25"
     inkscape:showpageshadow="2"
     inkscape:pageopacity="0.0"
     inkscape:pagecheckerboard="0"
     inkscape:deskcolor="#d1d1d1"
     inkscape:zoom="36.291667"
     inkscape:cx="11.986223"
     inkscape:cy="12"
     inkscape:window-width="1920"
     inkscape:window-height="1052"
     inkscape:window-x="0"
     inkscape:window-y="0"
     inkscape:window-maximized="1"
     inkscape:current-layer="svg1" />
  <title
     id="title1">DeepSeek</title>
  <path
     d="m 23.088791,4.8944653 c -0.239745,-0.117041 -0.343572,0.1066582 -0.483266,0.2208675 -0.04814,0.036811 -0.08873,0.084949 -0.129311,0.1283675 -0.351123,0.3747198 -0.760767,0.6201283 -1.295946,0.590868 -0.782475,-0.043418 -1.450741,0.20199 -2.041609,0.8004091 C 19.013123,5.8968643 18.595929,5.4570169 17.961642,5.1738533 17.629397,5.0266083 17.293376,4.8803071 17.060238,4.5603322 16.897891,4.3328575 16.853529,4.0789542 16.772355,3.8297702 16.720442,3.6787496 16.668529,3.5248974 16.495799,3.4994127 c -0.188776,-0.02926 -0.262398,0.1283675 -0.336021,0.2605105 -0.295434,0.5398985 -0.409643,1.1345421 -0.398317,1.7367366 0.02548,1.3554096 0.597475,2.4352067 1.734849,3.20258 0.129312,0.087781 0.162347,0.1765053 0.12176,0.3048728 -0.0774,0.264286 -0.169898,0.521021 -0.251071,0.7862508 -0.05191,0.1689543 -0.129312,0.2048217 -0.310536,0.132143 A 5.215873,5.215873 0 0 1 15.41789,8.8087297 C 14.608986,8.0271983 13.878424,7.1644932 12.966637,6.4886762 A 10.72718,10.72718 0 0 0 12.316304,6.0441094 c -0.92972,-0.9032918 0.122705,-1.6451804 0.366225,-1.7329611 0.254848,-0.0925 0.08778,-0.4077556 -0.735281,-0.40398 -0.823062,0.00378 -1.576277,0.2784441 -2.5362018,0.6456129 A 2.8835491,2.8835491 0 0 1 8.9721427,4.6820926 9.0584027,9.0584027 0 0 0 6.2509408,4.585817 C 4.4717296,4.7840315 3.0511924,5.6259712 2.0063188,7.0616105 0.75096028,8.7870205 0.45552629,10.7484 0.81703178,12.792841 1.1974149,14.94866 2.2979773,16.733534 3.9884638,18.128587 c 1.7537264,1.446966 3.7726827,2.155818 6.0766902,2.0199 1.398828,-0.08023 2.957172,-0.268062 4.71373,-1.755614 0.443623,0.220867 0.908011,0.308648 1.680104,0.37472 0.594643,0.05569 1.166634,-0.02832 1.609313,-0.120817 0.69375,-0.147245 0.645613,-0.790026 0.395485,-0.907067 -2.034059,-0.947654 -1.587604,-0.561608 -1.994416,-0.874032 1.034491,-1.223266 2.591891,-2.493727 3.201636,-6.609981 0.04719,-0.3275263 0.0066,-0.5332918 0,-0.7975778 -0.0038,-0.1604594 0.03304,-0.2236992 0.217092,-0.2416329 A 3.9388053,3.9388053 0 0 0 21.346391,8.7681429 C 22.664045,8.0479636 23.196393,6.8662276 23.321929,5.448522 23.340806,5.2314299 23.318153,5.0077307 23.088791,4.8935214 Z M 11.60462,17.653816 C 9.6328577,16.103967 8.6767087,15.593329 8.2821675,15.615038 c -0.3700004,0.02265 -0.3029851,0.444567 -0.2218115,0.720179 0.084949,0.271838 0.1953829,0.458725 0.3501789,0.697527 0.1076022,0.157627 0.1812247,0.392653 -0.1066582,0.569159 C 7.6686464,17.994556 6.5652523,17.46976 6.513339,17.444275 5.2287203,16.687284 4.1536426,15.688661 3.3975958,14.322868 2.6670338,13.008046 2.2422884,11.597891 2.1724414,10.092405 2.1535639,9.7280675 2.2602221,9.5997 2.6226715,9.5336285 a 4.4324538,4.4324538 0 0 1 1.4431904,-0.036811 c 2.0123491,0.2944901 3.7245448,1.1940065 5.161128,2.6183185 0.8192871,0.811736 1.4394151,1.781099 2.0784211,2.728753 0.679592,1.006175 1.410154,1.965156 2.340818,2.750463 0.32847,0.275612 0.589925,0.485153 0.840996,0.639005 -0.75699,0.08495 -2.0199,0.103827 -2.882605,-0.579541 z m 0.943879,-6.078578 a 0.28882684,0.28882684 0 0 1 0.391709,-0.270893 0.28505133,0.28505133 0 0 1 0.188776,0.271837 0.28882684,0.28882684 0 0 1 -0.292602,0.28977 0.28599521,0.28599521 0 0 1 -0.286939,-0.290714 z m 2.935462,1.50643 c -0.188776,0.07645 -0.376608,0.142526 -0.556888,0.151021 a 1.1751288,1.1751288 0 0 1 -0.753215,-0.239746 c -0.258623,-0.217092 -0.443623,-0.337908 -0.521021,-0.71546 a 1.6329099,1.6329099 0 0 1 0.0151,-0.555 c 0.06607,-0.308648 -0.0076,-0.506863 -0.225587,-0.6862 -0.176506,-0.147245 -0.402093,-0.187832 -0.649389,-0.187832 a 0.52762813,0.52762813 0 0 1 -0.239745,-0.07362 c -0.103827,-0.05097 -0.188776,-0.179337 -0.107602,-0.337909 0.02643,-0.05097 0.15102,-0.175561 0.181225,-0.198214 0.33602,-0.190664 0.723954,-0.128368 1.081684,0.0151 0.332246,0.135918 0.583317,0.385102 0.944823,0.738113 0.369056,0.425689 0.436072,0.543674 0.646557,0.862705 0.166122,0.250128 0.317143,0.506863 0.420026,0.800409 0.06324,0.184056 -0.01793,0.334133 -0.23597,0.426633 z"
     id="path1"
     style="stroke-width:0.943879" />
</svg>
