<svg xmlns="http://www.w3.org/2000/svg" xmlns:xlink="http://www.w3.org/1999/xlink" viewBox="0,0,256,256" width="50px" height="50px"><g fill="#ffffff" fill-rule="nonzero" stroke="none" stroke-width="1" stroke-linecap="butt" stroke-linejoin="miter" stroke-miterlimit="10" stroke-dasharray="" stroke-dashoffset="0" font-family="none" font-weight="none" font-size="none" text-anchor="none" style="mix-blend-mode: normal"><g transform="scale(5.12,5.12)"><path d="M25,2c-12.69141,0 -23,10.30859 -23,23c0,12.69141 10.30859,23 23,23c12.69141,0 23,-10.30859 23,-23c0,-12.69141 -10.30859,-23 -23,-23zM25,4c11.60938,0 21,9.39063 21,21c0,10.10156 -7.09766,18.51563 -16.59375,20.53125c-0.24219,-0.375 -0.52734,-0.81641 -0.875,-1.3125c-0.72266,-1.03516 -1.23437,-1.84766 -1.53125,-2.46875c1.89063,0.76953 3.16016,1.15625 3.8125,1.15625c0.47266,0 0.71875,-0.73828 0.71875,-2.21875c0,-2.75 -0.27734,-4.125 -0.78125,-4.125c-0.73828,0 -2.15234,0.80859 -4.28125,2.4375c0,-0.41406 -0.21484,-0.58984 -0.65625,-0.53125h-0.25c-0.76953,-2.03906 -1.125,-3.87109 -1.125,-5.46875c0,-0.44531 0.03516,-0.86719 0.125,-1.3125c2.71875,1.33203 4.90625,1.96875 6.5625,1.96875c0.91797,0 2.30859,-0.25 4.15625,-0.78125c1.84766,-0.53125 2.75,-1.09766 2.75,-1.71875c0,-0.38281 -0.24609,-0.59375 -0.75,-0.59375c-0.76953,0 -1.86328,0.10547 -3.3125,0.3125c-1.44922,0.20703 -2.57422,0.3125 -3.34375,0.3125c-0.79687,0 -1.66406,-0.21094 -2.625,-0.625c-0.96094,-0.41406 -1.4375,-0.97656 -1.4375,-1.6875c0,-0.14844 0.01563,-0.26953 0.0625,-0.34375c0.04688,-0.07031 0.09766,-0.10937 0.1875,-0.125c0.08984,-0.01562 0.19141,-0.01562 0.28125,0c0.08984,0.01563 0.19531,0.04688 0.34375,0.0625c0.14844,0.01563 0.28906,0 0.40625,0c0.26563,0 0.65234,0.05078 1.15625,0.125c0.50391,0.07422 0.85547,0.09375 1.09375,0.09375c0.91797,0 2.78516,-0.51562 5.625,-1.59375c2.83984,-1.07812 4.28125,-1.94141 4.28125,-2.53125c0,-0.35547 -0.29687,-0.60156 -0.84375,-0.75c-0.54687,-0.14844 -1.02734,-0.21875 -1.5,-0.21875c-0.41406,0 -1.04687,0.12109 -1.875,0.34375c-0.82812,0.22266 -1.74219,0.47266 -2.71875,0.78125c-0.97656,0.30859 -1.61328,0.53516 -1.9375,0.625c0.11719,-0.58984 0.1875,-1.08203 0.1875,-1.4375c0,-1.39062 -0.38672,-2.99609 -1.125,-4.84375c-0.73828,-1.84766 -1.58594,-3.23828 -2.5625,-4.125c-0.79687,-0.71094 -1.88672,-1.17187 -3.21875,-1.4375c-0.82812,-1.06641 -2.11719,-2.03516 -3.875,-2.90625c-1.75781,-0.87109 -3.29687,-1.3125 -4.65625,-1.3125c-0.26562,0 -0.67187,0.05469 -1.21875,0.15625c-0.54687,0.10156 -0.91406,0.15625 -1.0625,0.1875l-0.96875,1.375l0.25,0.0625c0.20703,0 0.53906,-0.03516 0.96875,-0.09375c0.42969,-0.05859 0.76172,-0.09375 0.96875,-0.09375c1.00391,0 2.13672,0.21094 3.4375,0.625c-0.82812,0.41406 -1.53516,0.69531 -2.15625,0.84375c-0.05859,0.03125 -0.26953,0.05078 -0.59375,0.09375c-0.32422,0.04297 -0.58984,0.11328 -0.8125,0.15625c-0.22266,0.04297 -0.43359,0.11719 -0.625,0.25c-0.19141,0.13281 -0.28125,0.29297 -0.28125,0.5c1.65625,-0.17578 2.89063,-0.25 3.71875,-0.25c1.125,0 2.00781,0.10547 2.65625,0.3125c-2.27734,0.26563 -4.02344,1.04297 -5.25,2.34375c-1.22656,1.30078 -1.84375,3.09766 -1.84375,5.375c0,0.79688 0.07031,1.53906 0.1875,2.21875c0.5625,3.54688 1.62109,8.83594 3.21875,15.875c0.70703,3.30469 0.92969,4.3125 1.1875,5.46875c-7.98047,-2.97266 -13.65625,-10.66016 -13.65625,-19.6875c0,-11.60937 9.39063,-21 21,-21zM27.78125,17.4375c0.73828,0 1.26563,0.31641 1.5625,0.96875c-0.58984,-0.29687 -1.08203,-0.4375 -1.46875,-0.4375c-0.85547,0 -1.38672,0.17969 -1.625,0.5625c0.11719,-0.73828 0.61719,-1.09375 1.53125,-1.09375zM17.6875,17.96875c0.5625,0 0.98438,0.20703 1.28125,0.59375c-0.35547,-0.14844 -0.64062,-0.25 -0.875,-0.25c-0.50391,0 -1.0625,0.17578 -1.625,0.53125c-0.5625,0.35547 -0.80859,0.77734 -0.78125,1.25c-0.08984,-0.17578 -0.125,-0.35547 -0.125,-0.53125c0,-0.50391 0.22656,-0.875 0.6875,-1.15625c0.45703,-0.28125 0.93359,-0.4375 1.4375,-0.4375zM28.5625,20.71875c0.35547,0 0.65625,0.125 0.90625,0.375c0.25,0.25 0.375,0.55078 0.375,0.90625c0,0.32422 -0.125,0.64063 -0.375,0.90625c-0.25,0.26563 -0.55078,0.375 -0.90625,0.375c-0.32422,0 -0.64062,-0.10937 -0.90625,-0.375c-0.26562,-0.26562 -0.40625,-0.58203 -0.40625,-0.90625c0,-0.35547 0.14063,-0.65625 0.40625,-0.90625c0.26563,-0.25 0.58203,-0.375 0.90625,-0.375zM29.125,21.25c-0.20703,0 -0.3125,0.10547 -0.3125,0.3125c0,0.23828 0.10547,0.34375 0.3125,0.34375c0.23828,0 0.34375,-0.10547 0.34375,-0.34375c0,-0.20703 -0.10547,-0.3125 -0.34375,-0.3125zM18.53125,21.375c0.38281,0 0.72266,0.15625 1.03125,0.46875c0.30859,0.3125 0.46875,0.67969 0.46875,1.0625c0,0.38281 -0.16016,0.72266 -0.46875,1.03125c-0.30859,0.30859 -0.64844,0.46875 -1.03125,0.46875c-0.38281,0 -0.75391,-0.15625 -1.0625,-0.46875c-0.30859,-0.3125 -0.4375,-0.64844 -0.4375,-1.03125c0,-0.38281 0.125,-0.75391 0.4375,-1.0625c0.3125,-0.30859 0.67969,-0.46875 1.0625,-0.46875zM19.1875,22c-0.26562,0 -0.40625,0.14063 -0.40625,0.40625c0,0.23828 0.14063,0.34375 0.40625,0.34375c0.26563,0 0.40625,-0.10547 0.40625,-0.34375c0,-0.26562 -0.14062,-0.40625 -0.40625,-0.40625z"></path></g></g></svg>