<svg xmlns="http://www.w3.org/2000/svg" xmlns:xlink="http://www.w3.org/1999/xlink" viewBox="0,0,256,256" width="50px" height="50px"><g fill="#ffffff" fill-rule="nonzero" stroke="none" stroke-width="1" stroke-linecap="butt" stroke-linejoin="miter" stroke-miterlimit="10" stroke-dasharray="" stroke-dashoffset="0" font-family="none" font-weight="none" font-size="none" text-anchor="none" style="mix-blend-mode: normal"><g transform="scale(5.12,5.12)"><path d="M26,2c-12.69141,0 -23,10.30859 -23,23c0,12.69141 10.30859,23 23,23c9.91797,0 15.97266,-4.5625 19.125,-10.21875c3.15234,-5.65625 3.55078,-12.30078 2.59375,-16.84375l-0.1875,-0.78125h-0.78125l-20.75,-0.03125h-1v10.40625h11.4375c-1.72656,4 -5.24219,6.75 -10.4375,6.75c-6.78906,0 -12.28125,-5.49219 -12.28125,-12.28125c0,-6.78906 5.49219,-12.28125 12.28125,-12.28125c3.05078,0 5.82031,1.12891 7.96875,2.96875l0.71875,0.59375l6.84375,-6.84375l0.71875,-0.75l-0.75,-0.6875c-4.08594,-3.72266 -9.53906,-6 -15.5,-6zM26,4c5.07422,0 9.65234,1.85547 13.28125,4.84375l-4.8125,4.8125c-2.37891,-1.77734 -5.26953,-2.9375 -8.46875,-2.9375c-7.87109,0 -14.28125,6.41016 -14.28125,14.28125c0,7.87109 6.41016,14.28125 14.28125,14.28125c6.55078,0 11.26172,-4.01562 12.9375,-9.46875l0.40625,-1.28125h-12.34375v-6.40625l18.84375,0.03125c0.66406,4.03516 0.22266,9.82813 -2.46875,14.65625c-2.85937,5.125 -8.05469,9.1875 -17.375,9.1875c-11.61328,0 -21,-9.39062 -21,-21c0,-11.60937 9.38672,-21 21,-21z"></path></g></g></svg>