<?xml version="1.0" encoding="UTF-8" standalone="no"?>
<svg
   version="1.1"
   width="518.36737"
   height="514"
   id="svg1"
   sodipodi:docname="google-dark.svg"
   inkscape:version="1.3.2 (091e20ef0f, 2023-11-25)"
   xmlns:inkscape="http://www.inkscape.org/namespaces/inkscape"
   xmlns:sodipodi="http://sodipodi.sourceforge.net/DTD/sodipodi-0.dtd"
   xmlns="http://www.w3.org/2000/svg"
   xmlns:svg="http://www.w3.org/2000/svg">
  <defs
     id="defs1" />
  <sodipodi:namedview
     id="namedview1"
     pagecolor="#ffffff"
     bordercolor="#000000"
     borderopacity="0.25"
     inkscape:showpageshadow="2"
     inkscape:pageopacity="0.0"
     inkscape:pagecheckerboard="0"
     inkscape:deskcolor="#d1d1d1"
     inkscape:zoom="1.6074219"
     inkscape:cx="220.85054"
     inkscape:cy="326.2989"
     inkscape:window-width="2560"
     inkscape:window-height="1020"
     inkscape:window-x="0"
     inkscape:window-y="0"
     inkscape:window-maximized="1"
     inkscape:current-layer="svg1" />
  <path
     d="m 257.84461,2.5 c 0.33,0 0.66,0 1,0 0.13462,1.1510925 0.13462,1.1510925 0.27197,2.3254395 6.72576,56.3984095 24.5237,108.2650205 60.72803,152.6745605 0.44778,0.55075 0.89557,1.1015 1.35693,1.66895 10.9742,13.38875 22.98455,25.67698 36.64307,36.33105 0.71285,0.60328 1.4257,1.20656 2.16016,1.82812 14.18503,11.90843 30.4103,21.69833 46.83984,30.17188 1.00281,0.52086 1.00281,0.52086 2.02588,1.05225 32.31269,16.56391 68.04182,24.53844 103.97412,27.94775 -2.45971,2.45971 -3.3919,2.33285 -6.79297,2.60547 -1.00676,0.0923 -2.01351,0.18466 -3.05078,0.27978 -1.10344,0.0998 -2.20688,0.19949 -3.34375,0.30225 -59.29158,6.19972 -114.99423,32.45187 -157.8125,73.8125 -0.93127,0.8984 -0.93127,0.8984 -1.88135,1.81494 -7.90774,7.67021 -15.40203,15.43094 -22.11865,24.18506 -0.894,1.11892 -1.78856,2.23738 -2.6836,3.35547 -25.27808,32.08602 -41.59996,69.93379 -50.3164,109.64453 -0.24291,1.10215 -0.24291,1.10215 -0.49073,2.22656 -2.6077,12.12831 -4.00055,24.47083 -5.50927,36.77344 -0.33,0 -0.66,0 -1,0 -0.0845,-0.71615 -0.16903,-1.43231 -0.25611,-2.17017 -6.65299,-55.03204 -23.80518,-107.6702 -59.74389,-150.82983 -0.44747,-0.54898 -0.89494,-1.09796 -1.35596,-1.66357 -11.74519,-14.40559 -24.85102,-28.0476 -39.64404,-39.33643 -0.95262,-0.76957 -1.90523,-1.53914 -2.88672,-2.33203 -40.28195,-32.09415 -90.096713,-51.02399 -141.204103,-55.73145 -1.02577,-0.0976 -2.05154,-0.19529 -3.1084005,-0.2959 -0.90581,-0.077 -1.81161,-0.15404 -2.74487,-0.23339 -0.67845,-0.13439 -1.3569,-0.26877 -2.05591,-0.40723 -0.33,-0.66 -0.66,-1.32 -1,-2 0.78198,-0.0845 1.56396,-0.16903 2.36963,-0.2561 C 63.337477,249.9001 115.13316,231.19965 159.84461,194.5 c 0.57991,-0.4755 1.15983,-0.95101 1.75732,-1.44092 12.647,-10.44206 24.12816,-21.62027 34.24268,-34.55908 0.88007,-1.091 1.76165,-2.18079 2.64453,-3.26953 C 234.28337,110.82974 251.43175,58.586512 257.84461,2.5 Z m 0,64 c -0.17016,0.54189 -0.34032,1.083779 -0.51563,1.64209 -4.0696,12.8501 -8.66974,25.195933 -14.48437,37.35791 -0.32082,0.67337 -0.64163,1.34675 -0.97217,2.04053 -2.25613,4.69903 -4.61084,9.34132 -7.02783,13.95947 -0.37351,0.71656 -0.74702,1.43312 -1.13184,2.17139 -12.07161,22.96219 -27.95765,43.13853 -45.86816,61.82861 -0.77989,0.82113 -1.55977,1.64227 -2.36328,2.48828 -5.50661,5.6631 -11.46631,10.5927 -17.63672,15.51172 -1.14727,0.94749 -2.29303,1.89679 -3.4375,2.84766 -15.60268,12.87604 -32.63686,22.84525 -50.5625,32.15234 -0.73686,0.38285 -1.47372,0.7657 -2.23291,1.16016 -10.16533,5.20388 -20.695523,9.13314 -31.479253,12.87182 -1.54627,0.53718 -1.54627,0.53718 -3.12378,1.08521 -0.92345,0.31566 -1.8469,0.63132 -2.79834,0.95654 -2.57297,0.91048 -2.57297,0.91048 -5.36572,2.92627 4.43512,1.81243 8.87298,3.59526 13.38281,5.21484 33.226203,11.9656 64.216453,29.22758 90.617193,52.78516 1.21236,1.04801 1.21236,1.04801 2.44922,2.11719 11.7699,10.31082 23.04175,21.44269 32.55078,33.88281 0.89247,1.11779 1.78575,2.23494 2.67968,3.35156 20.47032,25.97186 35.14605,56.15743 45.47339,87.44141 0.84367,2.44024 0.84367,2.44024 2.84693,5.20703 0.19521,-0.592 0.39042,-1.184 0.59155,-1.79395 11.11537,-33.45245 26.35133,-66.29432 49.04175,-93.56298 1.35324,-1.62689 2.68609,-3.26907 4.01904,-4.9126 11.8901,-14.44509 25.31109,-28.54661 40.34766,-39.73047 1.10826,-0.84871 2.21632,-1.69769 3.32422,-2.54688 26.66563,-20.20768 56.3843,-35.66391 88.36841,-45.54101 2.46902,-0.67925 2.46902,-0.67925 3.30737,-2.91211 -0.592,-0.19521 -1.184,-0.39042 -1.79395,-0.59155 -14.13465,-4.69658 -27.80921,-9.88965 -41.20605,-16.40845 -0.84772,-0.41089 -1.69544,-0.82178 -2.56885,-1.24512 -18.76066,-9.19936 -36.24581,-20.53894 -52.43115,-33.75488 -0.54109,-0.43957 -1.08217,-0.87914 -1.63965,-1.33203 -13.71815,-11.2146 -26.55943,-23.59687 -37.36035,-37.66797 -1.00167,-1.26246 -2.00436,-2.52412 -3.00782,-3.78516 C 285.79048,133.76485 268.0401,101.01742 258.84461,66.5 c -0.33,0 -0.66,0 -1,0 z"
     fill="#47704C"
     id="path1"
     style="fill:#232629;fill-opacity:1;stroke:#232629;stroke-width:5;stroke-dasharray:none;stroke-opacity:1" />
</svg>
