<svg xmlns="http://www.w3.org/2000/svg" xmlns:xlink="http://www.w3.org/1999/xlink" viewBox="0,0,256,256" width="50px" height="50px"><g fill="#ffffff" fill-rule="nonzero" stroke="none" stroke-width="1" stroke-linecap="butt" stroke-linejoin="miter" stroke-miterlimit="10" stroke-dasharray="" stroke-dashoffset="0" font-family="none" font-weight="none" font-size="none" text-anchor="none" style="mix-blend-mode: normal"><g transform="scale(5.12,5.12)"><path d="M25,4c-11.028,0 -20,8.972 -20,20c0,2.17 0.34262,4.28073 1.01563,6.30273c-0.164,-0.035 -0.32289,-0.06398 -0.46289,-0.08398c-0.133,-0.018 -0.26363,-0.02734 -0.39062,-0.02734c-0.991,0 -1.88086,0.51495 -2.38086,1.37695c-0.507,0.872 -0.50691,1.9617 -0.00391,2.8457c0.037,0.064 0.07523,0.12745 0.11523,0.18945c-0.287,0.219 -0.53266,0.49912 -0.72266,0.82813c-0.584,1.012 -0.49422,2.21053 0.17578,3.14453c-0.356,0.48 -0.52928,1.06116 -0.48828,1.66016c0.05,0.717 0.41314,1.41034 0.99414,1.90234c0.496,0.419 1.03417,0.85559 1.70117,1.18359c3.405,1.673 7.00522,2.55233 10.69922,2.61133h0.08984l0.08984,-0.00586c0.216,-0.016 0.43244,-0.02997 0.64844,-0.04297c0.507,-0.032 1.03131,-0.06691 1.57031,-0.12891c1.212,-0.141 2.71039,-0.65331 3.90039,-2.07031c1.133,0.197 2.28822,0.31445 3.44922,0.31445c1.099,0 2.2013,-0.09348 3.2793,-0.27148c1.183,1.381 2.66233,1.88834 3.86133,2.02734c0.539,0.062 1.06331,0.09495 1.57031,0.12695c0.216,0.014 0.43244,0.02697 0.64844,0.04297l0.08984,0.00781l0.08984,-0.00195c3.694,-0.059 7.29422,-0.93637 10.69922,-2.60937c0.667,-0.328 1.20617,-0.76459 1.70117,-1.18359c0.582,-0.492 0.94414,-1.1873 0.99414,-1.9043c0.041,-0.599 -0.13128,-1.18016 -0.48828,-1.66016c0.67,-0.934 0.76078,-2.13253 0.17578,-3.14453c-0.19,-0.329 -0.43566,-0.60717 -0.72266,-0.82617c0.04,-0.062 0.07923,-0.12741 0.11523,-0.19141c0.503,-0.884 0.50114,-1.9737 -0.00586,-2.8457c-0.501,-0.861 -1.38986,-1.375 -2.38086,-1.375c-0.127,0 -0.25762,0.00934 -0.39062,0.02734c-0.074,0.01 -0.15923,0.02506 -0.24023,0.03906c0.664,-2.013 1.00391,-4.11781 1.00391,-6.25781c0,-11.028 -8.972,-20 -20,-20zM25,6c9.925,0 18,8.075 18,18c0,1.384 -0.16366,2.74808 -0.47266,4.08008c-0.471,-0.443 -1.09049,-0.70312 -1.77148,-0.70312c-0.365,0 -0.72908,0.07466 -1.08008,0.22266c-0.648,0.273 -1.58055,0.7338 -2.18555,1.5918c-0.11,0.156 -0.21912,0.31175 -0.32812,0.46875c-0.717,-1.166 -1.79439,-1.37325 -2.27539,-1.40625c-0.068,-0.005 -0.13417,-0.00781 -0.20117,-0.00781c-1.12,0 -2.11611,0.65119 -2.66211,1.74219c-0.197,0.394 -0.3795,0.79431 -0.5625,1.19531c-0.208,0.454 -0.40323,0.88111 -0.61523,1.28711c-0.581,1.111 -1.32122,2.1117 -2.19922,2.9707c-0.049,0.048 -0.09558,0.09649 -0.14258,0.14648c-0.656,0.713 -2.65195,2.88236 -1.50195,5.94336c0.044,0.117 0.09948,0.21027 0.14648,0.32227c-1.492,0.178 -3.01009,0.17151 -4.49609,-0.02148c0.044,-0.104 0.09572,-0.19078 0.13672,-0.30078c1.15,-3.061 -0.84595,-5.23036 -1.50195,-5.94336c-0.046,-0.05 -0.09358,-0.09949 -0.14258,-0.14648c-0.878,-0.86 -1.61822,-1.85775 -2.19922,-2.96875c-0.212,-0.406 -0.40823,-0.83506 -0.61523,-1.28906c-0.183,-0.401 -0.36745,-0.80131 -0.56445,-1.19531c-0.546,-1.091 -1.54016,-1.74219 -2.66016,-1.74219c-0.066,0 -0.13412,0.00281 -0.20312,0.00781c-0.481,0.033 -1.55939,0.2432 -2.27539,1.4082c-0.109,-0.157 -0.21813,-0.31275 -0.32812,-0.46875c-0.605,-0.859 -1.53755,-1.32175 -2.18555,-1.59375c-0.351,-0.148 -0.71508,-0.22266 -1.08008,-0.22266c-0.604,0 -1.15166,0.21436 -1.59766,0.56836c-0.287,-1.284 -0.43555,-2.60131 -0.43555,-3.94531c0,-9.925 8.075,-18 18,-18zM18.29688,15.28125c-0.83344,0.04702 -1.62277,0.49911 -2.10352,1.25586c-0.604,0.951 -0.49433,2.24242 0.26367,3.10742c0.733,0.837 1.07266,0.82455 1.72266,-0.06445c0.519,-0.708 0.71281,-0.76784 1.50781,-0.46484c0.951,0.363 1.19652,0.21903 1.35352,-0.79297c0.02,-0.131 0.01948,-0.26378 0.02148,-0.30078c0.003,-1.297 -0.77173,-2.32144 -1.92773,-2.64844c-0.27825,-0.0785 -0.56008,-0.10747 -0.83789,-0.0918zM31.50391,15.28711c-0.63621,0.03131 -1.25656,0.29281 -1.72656,0.75781c-0.734,0.727 -0.96742,1.86355 -0.60742,2.81055c0.161,0.425 0.40475,0.5522 0.84375,0.4082c1.29,-0.425 1.29142,-0.41547 2.10742,0.64453c0.02,0.026 0.04055,0.05308 0.06055,0.08008c0.243,0.32 0.52038,0.36972 0.85938,0.13672c0.781,-0.537 1.20103,-1.26419 1.20703,-1.74219c-0.002,-1.564 -0.60937,-2.47944 -1.60937,-2.89844c-0.3645,-0.15225 -0.75304,-0.21605 -1.13477,-0.19727zM12.5,20c-0.82843,0 -1.5,0.67157 -1.5,1.5c0,0.82843 0.67157,1.5 1.5,1.5c0.82843,0 1.5,-0.67157 1.5,-1.5c0,-0.82843 -0.67157,-1.5 -1.5,-1.5zM37.5,20c-0.82843,0 -1.5,0.67157 -1.5,1.5c0,0.82843 0.67157,1.5 1.5,1.5c0.82843,0 1.5,-0.67157 1.5,-1.5c0,-0.82843 -0.67157,-1.5 -1.5,-1.5zM18.72656,23.89648c-0.39881,-0.02152 -0.57748,0.2568 -0.55273,0.8418c0.153,3.68 2.66666,6.90081 6.84766,6.88281c4.184,0.014 6.69317,-3.2357 6.82617,-6.8457c0.031,-0.847 -0.28112,-1.06023 -1.07812,-0.74023c-0.6,0.24 -1.18481,0.52227 -1.75781,0.82227c-2.524,1.321 -5.06453,1.46611 -7.64453,0.16211c-0.711,-0.359 -1.42997,-0.70595 -2.16797,-1.00195c-0.18225,-0.07325 -0.33972,-0.11392 -0.47266,-0.12109zM40.75586,29.37695c0.357,0 0.61597,0.29633 0.66797,0.73633c0.063,0.531 -0.01228,1.04098 -0.36328,1.45898c-0.576,0.687 -1.17244,1.35939 -1.77344,2.02539c-0.657,0.728 -2.37305,2.4628 -2.37305,2.7168c0,0.32 0.25813,0.58008 0.57813,0.58008c0.273,0 1.13573,-0.89328 1.42773,-1.11328c1.366,-1.026 2.71133,-2.07764 4.11133,-3.05664c0.416,-0.291 0.96947,-0.45439 1.48047,-0.52539c0.039,-0.005 0.07823,-0.00781 0.11523,-0.00781c0.599,0 0.96344,0.67842 0.64844,1.23242c-0.144,0.253 -0.35584,0.49206 -0.58984,0.66406c-0.561,0.412 -1.14633,0.79306 -1.73633,1.16406c-0.762,0.481 -4.04972,2.58842 -4.13672,2.73242c-0.009,0.007 -0.02344,0.01563 -0.02344,0.01563c0,0 0.00581,0.00777 0.00781,0.00977c-0.043,0.081 -0.07422,0.16958 -0.07422,0.26758c0,0.32 0.26008,0.57813 0.58008,0.57813c0.105,0 0.1982,-0.03498 0.2832,-0.08398c0.006,-0.001 0.01158,-0.00091 0.01758,-0.00391c0.891,-0.48 1.74553,-1.02919 2.64453,-1.49219c0.823,-0.424 1.67311,-0.80372 2.53711,-1.13672c0.145,-0.056 0.30013,-0.09375 0.45313,-0.09375c0.248,0 0.48734,0.09976 0.65234,0.38477c0.227,0.393 0.12664,0.88123 -0.31836,1.24023c-0.345,0.278 -0.72977,0.53108 -1.13477,0.70508c-1.005,0.433 -2.04183,0.79556 -3.04883,1.22656c-0.374,0.16 -0.7373,0.39383 -1.0293,0.67383c-0.13,0.125 -0.15341,0.48806 -0.06641,0.66406c0.066,0.133 0.36827,0.20117 0.57227,0.20117h0.01367c0.203,-0.003 0.41252,-0.11494 0.60352,-0.21094c0.623,-0.313 1.22733,-0.66708 1.86133,-0.95508c0.539,-0.244 1.09883,-0.4757 1.67383,-0.5957c0.025,-0.005 0.05013,-0.00781 0.07813,-0.00781c0.233,0 0.54899,0.17352 0.70898,0.35352c0.258,0.288 0.1078,0.66172 -0.1582,0.88672c-0.402,0.34 -0.82397,0.68502 -1.29297,0.91602c-3.102,1.524 -6.37666,2.35125 -9.84766,2.40625c-0.712,-0.053 -1.42872,-0.08106 -2.13672,-0.16406c-1.805,-0.21 -2.88705,-1.31441 -3.49805,-2.94141c-0.583,-1.553 0.08151,-2.77672 1.10352,-3.88672c0.023,-0.025 0.04631,-0.04731 0.07031,-0.07031c1.043,-1.02 1.89631,-2.18366 2.57031,-3.47266c0.429,-0.822 0.78031,-1.68367 1.19531,-2.51367c0.175,-0.35 0.45405,-0.63867 0.87305,-0.63867c0.021,0 0.04345,0.00095 0.06445,0.00195c0.477,0.033 0.71814,0.39192 0.86914,0.79492c0.409,1.094 0.13581,2.06325 -0.61719,2.90625c-0.308,0.345 -0.73786,0.58903 -1.00586,0.95703c-0.178,0.245 -0.30098,0.67645 -0.20898,0.93945c0.105,0.299 0.39203,0.40625 0.70703,0.40625c0.091,0 0.18534,-0.00939 0.27734,-0.02539c0.468,-0.081 0.73252,-0.39439 0.97852,-0.77539c1.106,-1.715 2.199,-3.43847 3.375,-5.10547c0.291,-0.413 0.84013,-0.6983 1.32813,-0.9043c0.107,-0.045 0.20969,-0.06445 0.30469,-0.06445zM9.0332,29.37891c0.095,0 0.19769,0.01945 0.30469,0.06445c0.488,0.205 1.03517,0.4913 1.32617,0.9043c1.176,1.667 2.27095,3.39047 3.37695,5.10547c0.246,0.381 0.50956,0.69339 0.97656,0.77539c0.092,0.016 0.18634,0.02539 0.27734,0.02539c0.315,0 0.60203,-0.10825 0.70703,-0.40625c0.093,-0.263 -0.02903,-0.69445 -0.20703,-0.93945c-0.267,-0.368 -0.69786,-0.61203 -1.00586,-0.95703c-0.753,-0.843 -1.02619,-1.81125 -0.61719,-2.90625c0.151,-0.403 0.39214,-0.75997 0.86914,-0.79297c0.022,-0.001 0.04245,-0.00391 0.06445,-0.00391c0.418,0 0.69805,0.28867 0.87305,0.63867c0.415,0.83 0.76631,1.69267 1.19531,2.51367c0.674,1.289 1.52731,2.45166 2.57031,3.47266c0.024,0.023 0.04731,0.04631 0.07031,0.07031c1.021,1.111 1.68652,2.33372 1.10352,3.88672c-0.61,1.625 -1.69305,2.72945 -3.49805,2.93945c-0.709,0.082 -1.42472,0.11106 -2.13672,0.16406c-3.471,-0.055 -6.74566,-0.88225 -9.84766,-2.40625c-0.469,-0.23 -0.89097,-0.57502 -1.29297,-0.91602c-0.266,-0.225 -0.4162,-0.59872 -0.1582,-0.88672c0.161,-0.179 0.47598,-0.35352 0.70898,-0.35352c0.028,0 0.05312,0.00181 0.07813,0.00781c0.575,0.12 1.13383,0.3507 1.67383,0.5957c0.634,0.287 1.23933,0.64108 1.86133,0.95508c0.191,0.096 0.40052,0.20794 0.60352,0.21094h0.01563c0.204,0 0.50627,-0.06817 0.57227,-0.20117c0.087,-0.176 0.06259,-0.54006 -0.06641,-0.66406c-0.292,-0.28 -0.6553,-0.51283 -1.0293,-0.67383c-1.006,-0.431 -2.04283,-0.79161 -3.04883,-1.22461c-0.406,-0.175 -0.78977,-0.42903 -1.13477,-0.70703c-0.445,-0.359 -0.54536,-0.84723 -0.31836,-1.24023c0.165,-0.285 0.40434,-0.38281 0.65234,-0.38281c0.153,0 0.30812,0.03775 0.45313,0.09375c0.864,0.332 1.71411,0.71272 2.53711,1.13672c0.899,0.464 1.75353,1.01123 2.64453,1.49023c0.005,0.003 0.01158,0.00291 0.01758,0.00391c0.085,0.049 0.1782,0.08594 0.2832,0.08594c0.32,0 0.58008,-0.26008 0.58008,-0.58008c0,-0.099 -0.03122,-0.18658 -0.07422,-0.26758c0.001,-0.003 0.00586,-0.00977 0.00586,-0.00977c0,0 -0.01344,-0.00962 -0.02344,-0.01562c-0.087,-0.144 -3.37372,-2.25142 -4.13672,-2.73242c-0.59,-0.372 -1.17533,-0.75206 -1.73633,-1.16406c-0.234,-0.172 -0.44584,-0.41106 -0.58984,-0.66406c-0.316,-0.554 0.04944,-1.23047 0.64844,-1.23047c0.037,0 0.07623,0.00281 0.11523,0.00781c0.511,0.071 1.06447,0.23244 1.48047,0.52344c1.4,0.978 2.74533,2.03159 4.11133,3.05859c0.292,0.22 1.15473,1.11133 1.42773,1.11133c0.32,0 0.57813,-0.25812 0.57813,-0.57812c0,-0.254 -1.71605,-1.99075 -2.37305,-2.71875c-0.601,-0.666 -1.19744,-1.33644 -1.77344,-2.02344c-0.067,-0.08 -0.11506,-0.16595 -0.16406,-0.25195c-0.062,-0.139 -0.10997,-0.28187 -0.16797,-0.42187c-0.058,-0.25 -0.06425,-0.51416 -0.03125,-0.78516c0.052,-0.44 0.31097,-0.73633 0.66797,-0.73633z"></path></g></g></svg>