<svg xmlns="http://www.w3.org/2000/svg" xmlns:xlink="http://www.w3.org/1999/xlink" viewBox="0,0,256,256" width="50px" height="50px"><g fill="#232629" fill-rule="nonzero" stroke="none" stroke-width="1" stroke-linecap="butt" stroke-linejoin="miter" stroke-miterlimit="10" stroke-dasharray="" stroke-dashoffset="0" font-family="none" font-weight="none" font-size="none" text-anchor="none" style="mix-blend-mode: normal"><g transform="scale(5.12,5.12)"><path d="M5,5v40h40v-40zM7,7h36v36h-36zM35,8.77344l-9,8v-7.64844h-2v7.77344l-9,-8v9.10156h-4v14h4v9.22656l9,-8v6.77344h2v-6.64844l9,8v-9.35156h4v-14h-4zM33,13.22656v4.77344h-5.36914zM17,13.35156l5.22852,4.64844h-5.22852zM13,20h9.36914l-7.36914,6.55078v3.44922h-2zM27.49023,20h9.50977v10h-2v-3.32422zM24,21.22852v9.32422l-7,6.2207v-9.32422zM26,21.35156l7,6.22266v9.32422l-7,-6.22266z"></path></g></g></svg>