<svg xmlns="http://www.w3.org/2000/svg" xmlns:xlink="http://www.w3.org/1999/xlink" viewBox="0,0,256,256" width="50px" height="50px"><g fill="#ffffff" fill-rule="nonzero" stroke="none" stroke-width="1" stroke-linecap="butt" stroke-linejoin="miter" stroke-miterlimit="10" stroke-dasharray="" stroke-dashoffset="0" font-family="none" font-weight="none" font-size="none" text-anchor="none" style="mix-blend-mode: normal"><g transform="scale(5.12,5.12)"><path d="M5,5v40h40v-40zM21.831,7c0.051,0.206 0.16,0.423 0.346,0.668c3.125,4.116 2.82,9.69 -0.669,13.32c-3.51,3.651 -9.054,4.233 -13.263,1.257c-0.472,-0.333 -0.873,-0.506 -1.245,-0.541v-14.704zM43,43h-36v-16.266c1.208,0.701 2.493,1.239 3.876,1.514c3.881,0.772 7.604,0.202 10.975,-1.966c0.736,-0.473 1.138,-0.407 1.712,0.202c1.353,1.438 2.78,2.807 4.177,4.204c-0.005,0.004 -0.009,0.009 -0.014,0.014c1.427,1.427 2.852,2.858 4.283,4.281c1.045,1.039 1.343,1.033 2.427,-0.014c0.216,-0.209 0.427,-0.423 0.638,-0.637c1.177,-1.198 1.176,-1.371 -0.047,-2.591c-2.767,-2.76 -5.523,-5.531 -8.316,-8.265c-0.603,-0.59 -0.742,-0.959 -0.247,-1.801c2.859,-4.87 3.094,-9.805 0.479,-14.675h16.057z"></path></g></g></svg>