<?xml version="1.0" encoding="UTF-8" standalone="no"?>
<!-- Created with Inkscape (http://www.inkscape.org/) -->

<svg xmlns:dc="http://purl.org/dc/elements/1.1/" xmlns:cc="http://creativecommons.org/ns#"
  xmlns:rdf="http://www.w3.org/1999/02/22-rdf-syntax-ns#" xmlns:svg="http://www.w3.org/2000/svg"
  xmlns="http://www.w3.org/2000/svg" xmlns:sodipodi="http://sodipodi.sourceforge.net/DTD/sodipodi-0.dtd"
  xmlns:inkscape="http://www.inkscape.org/namespaces/inkscape" width="20mm" height="20mm" viewBox="0 0 20 20"
  version="1.1" id="svg1139" sodipodi:docname="Chatbot icon.svg" inkscape:version="0.92.3 (2405546, 2018-03-11)">
  <title id="title200">Chatbot icon</title>
  <defs id="defs1133">
    <clipPath clipPathUnits="userSpaceOnUse" id="clipPath5238-1-8-9-8-4">
      <rect transform="rotate(-90)"
        style="color:#000000;display:inline;overflow:visible;visibility:visible;fill:#ffffff;fill-opacity:1;fill-rule:evenodd;stroke:none;enable-background:accumulate"
        id="rect5240-2-3-9-5-1" width="315.35437" height="744.09448" x="-1016.9291" y="1461.6753" />
    </clipPath>
    <clipPath clipPathUnits="userSpaceOnUse" id="clipPath5242-3-9-7-7">
      <rect transform="rotate(-90)"
        style="color:#000000;display:inline;overflow:visible;visibility:visible;fill:#ffffff;fill-opacity:1;fill-rule:evenodd;stroke:none;enable-background:accumulate"
        id="rect5244-3-2-6-6" width="315.35437" height="744.09448" x="-1016.9291" y="1461.6753" />
    </clipPath>
  </defs>
  <sodipodi:namedview id="base" pagecolor="#ffffff" bordercolor="#666666" borderopacity="1.0" inkscape:pageopacity="0.0"
    inkscape:pageshadow="2" inkscape:zoom="6.9717708" inkscape:cx="37.795276" inkscape:cy="37.795276"
    inkscape:document-units="mm" inkscape:current-layer="layer1" showgrid="false" inkscape:window-width="944"
    inkscape:window-height="1041" inkscape:window-x="960" inkscape:window-y="0" inkscape:window-maximized="0"
    inkscape:snap-bbox="true" inkscape:bbox-paths="true" inkscape:snap-bbox-edge-midpoints="true"
    inkscape:bbox-nodes="true" inkscape:snap-bbox-midpoints="true" inkscape:object-paths="true"
    inkscape:snap-intersection-paths="true" inkscape:snap-smooth-nodes="true" inkscape:snap-midpoints="true"
    fit-margin-left="0" fit-margin-top="0" fit-margin-right="0" fit-margin-bottom="0" />
  <metadata id="metadata1136">
    <rdf:RDF>
      <cc:Work rdf:about="">
        <dc:format>image/svg+xml</dc:format>
        <dc:type rdf:resource="http://purl.org/dc/dcmitype/StillImage" />
        <dc:title>Chatbot icon</dc:title>
        <dc:date>2018-09-30</dc:date>
        <dc:creator>
          <cc:Agent>
            <dc:title>m1981</dc:title>
          </cc:Agent>
        </dc:creator>
        <dc:rights>
          <cc:Agent>
            <dc:title>Public domain</dc:title>
          </cc:Agent>
        </dc:rights>
        <dc:publisher>
          <cc:Agent>
            <dc:title>Inkscape</dc:title>
          </cc:Agent>
        </dc:publisher>
        <dc:subject>
          <rdf:Bag>
            <rdf:li>icon</rdf:li>
            <rdf:li>flat</rdf:li>
            <rdf:li>IT</rdf:li>
            <rdf:li>computer</rdf:li>
            <rdf:li>chatbot</rdf:li>
            <rdf:li>question</rdf:li>
            <rdf:li>deeplearning</rdf:li>
            <rdf:li>AI</rdf:li>
            <rdf:li>artificial</rdf:li>
            <rdf:li>intelligence</rdf:li>
            <rdf:li>chat</rdf:li>
            <rdf:li>bot</rdf:li>
            <rdf:li></rdf:li>
          </rdf:Bag>
        </dc:subject>
        <dc:description>An AI chatbot icon.</dc:description>
      </cc:Work>
    </rdf:RDF>
  </metadata>
  <g inkscape:label="Calque 1" inkscape:groupmode="layer" id="layer1" transform="translate(-25.414562,-111.28127)">
    <path
      style="opacity:1;vector-effect:none;fill:#232629;fill-opacity:1;fill-rule:evenodd;stroke:none;stroke-width:0.62069714px;stroke-linecap:butt;stroke-linejoin:miter;stroke-miterlimit:4;stroke-dasharray:none;stroke-dashoffset:0;stroke-opacity:1;marker:none"
      d="m 35.412312,115.5918 c -1.442046,0 -2.880739,0.49168 -4.052401,1.4748 -0.705182,0.59173 -1.2502,1.31171 -1.628713,2.10012 -0.05253,-0.005 -0.103652,-0.0164 -0.157588,-0.0164 -0.941869,0 -1.70024,0.75836 -1.70024,1.70021 v 2.10134 c 0,0.94184 0.758371,1.70021 1.70024,1.70021 0.05394,0 0.105059,-0.0117 0.157588,-0.0164 0.06777,0.14047 0.137889,0.27991 0.216918,0.41689 0.308938,0.55139 1.134304,0.0793 0.815588,-0.46655 -1.304955,-2.26029 -0.799571,-5.12447 1.199708,-6.80208 1.999326,-1.67765 4.903352,-1.67765 6.902655,0 1.999326,1.67761 2.50471,4.54174 1.199732,6.80208 l -0.01407,0.0234 -0.0094,0.0234 c 0,0 -0.633799,1.40211 -1.878344,1.40211 l -1.575387,-0.0141 c -0.147739,-0.21575 -0.384191,-0.366 -0.666512,-0.366 h -1.015533 c -0.45534,0 -0.821638,0.36752 -0.821638,0.82286 0,0.28087 0.178225,0.49415 0.586056,0.49415 l 3.493009,2.8e-4 c 1.867604,0 2.675336,-1.8335 2.712107,-1.91835 v -0.005 c 0.07832,-0.13578 0.147269,-0.27521 0.214572,-0.41444 0.05488,0.005 0.108342,0.0164 0.164858,0.0164 0.941869,0 1.700237,-0.75836 1.700237,-1.70021 v -2.10134 c 0,-0.94184 -0.75837,-1.70021 -1.700237,-1.70021 -0.05441,0 -0.105762,0.009 -0.158761,0.0164 -0.377627,-0.78846 -0.921023,-1.50837 -1.6263,-2.10014 -1.171614,-0.98312 -2.616355,-1.47481 -4.058451,-1.47481 z m -2.049205,2.98718 c -0.366019,-0.0239 -0.700354,0.0535 -0.992502,0.36114 -0.779049,0.82018 -1.260325,1.9365 -1.260325,3.12533 0,0.98061 0.327722,2.07941 0.879793,2.11951 0.786511,0.0572 2.027657,-0.45928 3.424676,-0.45928 1.480437,0 2.786843,0.57951 3.561606,0.44232 0.469528,-0.083 0.744064,-1.20536 0.744064,-2.10255 0,-1.18883 -0.482452,-2.30515 -1.261524,-3.12533 -0.779054,-0.82021 -1.855342,0 -3.044146,0 -0.743006,0 -1.441646,-0.32109 -2.051642,-0.36114 z m -0.174473,2.02134 c 0.434305,1.7e-4 0.786345,0.35219 0.786486,0.78651 -1.41e-4,0.43431 -0.352181,0.78633 -0.786486,0.78649 -0.434304,-1.6e-4 -0.786345,-0.35218 -0.786485,-0.78649 1.4e-4,-0.43432 0.352181,-0.78634 0.786485,-0.78651 z m 4.452304,0 c 0.434329,1.7e-4 0.786345,0.35219 0.786509,0.78651 -1.66e-4,0.43431 -0.35218,0.78633 -0.786509,0.78649 -0.434304,-1.6e-4 -0.786321,-0.35218 -0.786485,-0.78649 1.64e-4,-0.43432 0.352181,-0.78634 0.786485,-0.78651 z"
      id="rect6094-5-9" inkscape:connector-curvature="0"
      sodipodi:nodetypes="sccssssccccccccccssccccccssssccsccscscscsccccccccccc" />
  </g>
</svg>